{"glyphs":{"0":{"ha":1007,"x_min":68,"x_max":932,"o":"m 932 549 q 817 149 932 303 q 496 -11 698 -11 q 173 169 292 -11 q 68 556 68 329 q 108 829 68 708 q 242 1045 154 969 q 496 1133 345 1133 q 829 947 710 1133 q 932 549 932 786 m 663 568 q 655 739 663 677 q 609 886 643 834 q 492 949 567 949 q 382 887 419 949 q 341 743 351 837 q 335 576 335 688 q 342 399 335 456 q 387 245 353 300 q 507 179 429 179 q 619 244 581 179 q 659 395 650 297 q 663 568 663 443 z "},"1":{"ha":1046,"x_min":71,"x_max":977,"o":"m 977 -5 l 71 -6 l 71 204 l 402 204 l 402 827 l 91 661 l 91 886 q 164 908 136 898 q 241 941 192 919 q 335 989 320 979 q 472 1113 390 1025 l 665 1112 l 665 210 l 977 210 l 977 -5 z "},"2":{"ha":985,"x_min":65,"x_max":914,"o":"m 914 -1 l 65 -1 l 65 215 l 472 526 q 586 640 543 581 q 639 776 639 712 q 629 826 639 802 q 600 873 620 850 q 547 913 576 900 q 487 927 517 927 q 354 862 414 927 q 295 710 295 797 l 70 766 q 201 1025 102 935 q 501 1125 311 1125 q 691 1094 615 1125 q 835 977 775 1059 q 886 881 869 931 q 902 779 902 830 q 841 579 902 677 q 695 429 785 489 l 387 224 l 914 224 l 914 -1 z "},"3":{"ha":1014,"x_min":73,"x_max":939,"o":"m 938 316 q 792 54 921 136 q 505 -15 685 -15 q 215 78 325 -15 q 73 324 114 163 l 311 358 q 309 347 309 351 q 360 244 309 297 q 498 182 419 182 q 549 188 525 182 q 603 210 573 194 q 660 262 641 229 q 678 332 678 295 q 641 431 678 389 q 538 476 600 476 l 365 476 l 365 675 l 536 675 q 614 714 581 675 q 647 805 647 754 q 640 851 647 829 q 615 891 632 872 q 562 930 591 917 q 504 942 534 942 q 399 905 447 942 q 342 824 350 868 l 337 800 l 104 837 q 254 1053 147 975 q 507 1131 361 1131 q 777 1057 667 1131 q 902 827 902 973 q 851 667 902 725 q 718 584 811 620 q 874 492 815 554 q 939 337 939 424 q 939 324 939 329 q 938 316 938 319 z "},"4":{"ha":1036,"x_min":67,"x_max":967,"o":"m 967 252 l 811 252 l 811 -1 l 551 -1 l 551 253 l 67 253 l 67 452 l 514 1113 l 813 1113 l 813 445 l 967 445 l 967 252 m 565 446 l 565 908 l 266 446 l 565 446 z "},"5":{"ha":998,"x_min":76,"x_max":941,"o":"m 941 377 q 845 98 941 200 q 530 -16 737 -16 q 234 63 346 -16 q 76 302 123 142 l 316 339 q 376 231 316 276 q 506 189 432 189 q 620 229 574 189 q 681 361 673 274 q 682 374 682 365 q 635 484 682 437 q 522 532 588 532 q 418 510 464 532 q 348 447 372 488 l 136 485 l 180 1113 l 879 1113 l 850 886 l 365 886 l 348 643 q 461 715 403 694 q 597 736 518 736 q 841 630 740 736 q 941 377 941 525 z "},"6":{"ha":1009,"x_min":75,"x_max":935,"o":"m 935 358 q 815 96 935 207 q 534 -15 695 -15 q 198 123 314 -15 q 75 557 75 268 q 124 832 75 707 q 274 1044 177 968 q 533 1129 382 1129 q 737 1091 658 1129 q 854 986 808 1057 q 924 835 887 935 l 700 774 q 660 880 700 832 q 570 938 621 928 q 528 943 549 943 q 383 854 436 943 q 337 670 337 776 l 337 578 q 437 671 394 648 q 587 700 491 700 q 840 601 742 700 q 935 358 935 504 m 676 351 q 635 472 676 424 q 514 523 591 523 q 395 472 444 523 q 346 349 346 421 q 390 226 346 275 q 513 173 436 173 q 632 222 588 173 q 676 351 676 272 z "},"7":{"ha":927,"x_min":62,"x_max":855,"o":"m 855 910 q 760 788 802 850 q 690 668 726 736 q 627 539 663 617 q 573 377 594 469 q 546 229 554 303 q 538 103 538 156 l 539 -2 l 241 -2 q 258 191 241 104 q 312 378 272 261 q 432 648 367 540 q 616 879 498 755 l 62 879 l 81 1112 l 855 1113 l 855 910 z "},"8":{"ha":1027,"x_min":67,"x_max":948,"o":"m 948 337 q 837 78 948 168 q 497 -14 723 -14 q 205 58 322 -14 q 67 300 67 143 q 122 460 67 397 q 263 550 169 515 q 148 656 192 592 q 105 787 105 720 q 106 807 105 800 q 231 1046 123 959 q 503 1132 338 1132 q 683 1107 600 1132 q 840 1017 784 1077 q 906 837 906 946 q 861 692 906 750 q 743 605 824 644 q 891 510 844 565 q 948 337 948 444 m 602 690 q 660 742 637 705 q 682 821 682 779 q 640 919 682 881 q 496 963 591 963 q 409 942 441 963 q 353 851 369 916 q 351 831 351 840 q 433 730 351 774 q 525 694 472 710 l 573 678 l 602 690 m 702 287 q 650 381 697 342 q 561 429 616 410 q 499 447 530 438 l 443 467 l 382 442 q 349 417 367 436 q 303 312 303 371 q 305 290 303 298 q 376 192 314 227 q 509 162 430 162 q 642 192 586 162 q 702 278 702 225 q 702 287 702 284 z "},"9":{"ha":989,"x_min":69,"x_max":922,"o":"m 922 574 q 879 307 922 432 q 734 81 829 163 q 464 -15 624 -15 q 218 62 315 -15 q 113 217 142 123 l 102 258 l 329 298 q 378 216 351 239 q 485 184 414 184 q 618 261 570 184 q 660 423 660 327 l 663 534 q 551 449 610 475 q 414 422 492 422 q 171 517 270 422 q 69 760 69 615 q 192 1050 69 956 q 477 1131 298 1131 q 744 1048 639 1131 q 882 842 836 975 q 922 574 922 724 m 650 776 q 602 897 650 848 q 481 946 554 946 q 364 899 409 946 q 319 776 319 851 q 372 657 319 703 q 493 613 421 613 q 604 661 558 613 q 650 776 650 710 z "},"×":{"ha":0,"x_min":0,"x_max":0,"o":""}," ":{"ha":507,"x_min":0,"x_max":0,"o":""},"!":{"ha":456,"x_min":82,"x_max":386,"o":"m 386 1112 l 307 332 l 159 332 l 82 1112 l 386 1112 m 357 -2 l 111 -2 l 111 251 l 357 251 l 357 -2 z "},"\"":{"ha":668,"x_min":80,"x_max":676,"o":"m 676 907 l 608 698 l 522 698 l 455 903 l 455 1116 l 676 1116 l 676 907 m 300 907 l 233 698 l 147 698 l 80 903 l 80 1116 l 300 1116 l 300 907 z "},"#":{"ha":1041,"x_min":78,"x_max":968,"o":"m 968 639 l 808 639 l 771 446 l 922 446 l 922 271 l 733 271 l 679 -1 l 504 -1 l 555 271 l 401 271 l 345 -1 l 171 -1 l 224 267 l 78 267 l 78 446 l 261 446 l 297 638 l 143 638 l 143 814 l 332 814 l 390 1115 l 565 1115 l 505 813 l 666 813 l 726 1117 l 896 1117 l 838 814 l 968 814 l 968 639 m 633 640 l 472 640 l 433 446 l 595 446 l 633 640 z "},"$":{"ha":998,"x_min":78,"x_max":925,"o":"m 925 408 q 821 168 925 267 q 570 56 722 75 l 570 -95 l 435 -95 l 435 56 q 299 90 377 56 q 152 194 208 130 q 106 262 123 226 q 78 343 89 297 l 302 393 q 376 286 321 325 q 502 247 430 247 q 644 279 604 247 q 678 358 678 305 q 538 466 678 427 q 276 551 324 525 q 136 795 136 630 q 196 990 136 911 q 384 1105 257 1068 q 433 1112 411 1112 l 433 1198 l 567 1198 l 567 1117 q 658 1099 596 1117 q 784 1038 739 1075 q 853 965 829 1001 q 894 874 877 930 l 694 807 q 644 890 673 867 q 530 927 608 919 q 517 928 523 928 q 503 929 512 929 q 418 911 452 929 q 372 848 377 889 q 372 834 372 843 q 514 731 372 765 q 782 655 731 681 q 925 408 925 579 z "},"%":{"ha":1197,"x_min":72,"x_max":1130,"o":"m 535 829 q 489 633 535 705 q 308 543 432 543 q 129 633 194 543 q 72 832 72 713 q 128 1025 72 946 q 300 1113 191 1113 q 483 1025 422 1113 q 535 829 535 951 m 971 1112 l 353 1 l 227 1 l 845 1112 l 971 1112 m 1130 292 q 1084 96 1130 168 q 903 6 1027 6 q 724 96 789 6 q 667 294 667 176 q 723 486 667 409 q 895 573 785 573 q 1078 486 1017 573 q 1130 292 1130 413 m 382 845 q 374 956 382 927 q 304 1012 358 1012 q 229 919 242 1012 q 224 825 224 883 q 234 708 224 739 q 311 647 252 647 q 372 694 356 647 q 382 795 382 726 q 382 820 382 808 q 382 845 382 833 m 980 304 q 970 415 980 382 q 899 472 953 472 q 824 379 837 472 q 819 284 819 343 q 829 167 819 199 q 906 107 847 107 q 969 159 954 107 q 980 269 980 194 l 980 304 z "},"&":{"ha":1269,"x_min":69,"x_max":1192,"o":"m 1192 30 q 1137 17 1162 20 q 1080 13 1112 13 q 947 37 1003 13 q 837 117 892 60 q 689 29 772 60 q 504 -2 605 -2 q 201 88 317 -2 q 70 337 84 178 q 69 349 69 343 q 69 359 69 356 q 171 567 69 473 q 348 664 256 647 q 279 755 311 692 q 243 895 243 828 q 352 1081 243 1010 q 584 1145 450 1145 q 833 1065 742 1145 q 919 869 919 989 q 834 681 919 764 q 714 603 771 618 l 864 439 q 901 491 887 467 q 930 546 916 514 q 950 600 943 578 q 962 655 956 622 l 1192 621 q 1173 553 1182 579 q 1146 483 1165 527 q 1087 370 1117 417 q 1010 268 1057 323 q 1038 244 1025 253 q 1074 226 1052 235 q 1101 222 1078 225 q 1143 218 1125 218 q 1170 220 1162 218 q 1192 225 1179 221 l 1192 30 m 715 868 q 681 938 715 903 q 596 976 644 976 q 561 971 578 976 q 524 952 544 965 q 500 923 509 941 q 491 884 491 904 q 514 822 491 848 l 600 737 q 665 772 624 737 q 715 868 715 816 m 705 268 l 477 514 q 393 471 426 504 q 350 385 360 438 q 347 357 347 373 q 401 249 347 293 q 536 205 456 205 q 604 214 570 205 q 660 235 638 223 q 705 268 682 246 z "},"'":{"ha":363,"x_min":78,"x_max":303,"o":"m 303 890 l 232 700 l 146 700 l 78 903 l 78 1116 l 302 1117 l 303 890 z "},"(":{"ha":549,"x_min":53,"x_max":472,"o":"m 472 1232 q 324 894 366 1049 q 283 526 283 739 q 323 172 283 322 q 464 -158 362 22 l 293 -158 q 153 81 210 -52 q 77 324 104 194 q 53 536 53 440 q 76 737 53 623 q 152 987 104 869 q 293 1232 210 1126 l 472 1232 z "},")":{"ha":562,"x_min":70,"x_max":488,"o":"m 488 536 q 465 325 488 438 q 389 81 438 197 q 248 -158 332 -50 l 78 -158 q 219 172 179 23 q 258 526 258 321 q 218 894 258 741 q 70 1232 177 1046 l 248 1232 q 388 988 329 1128 q 464 737 437 871 q 488 536 488 621 z "},"*":{"ha":794,"x_min":56,"x_max":723,"o":"m 723 996 l 487 923 l 641 731 l 534 650 l 390 854 l 255 648 l 147 726 l 298 921 l 56 991 l 97 1113 l 328 1035 l 318 1281 l 453 1281 l 448 1035 l 681 1121 l 723 996 z "},"+":{"ha":937,"x_min":76,"x_max":873,"o":"m 873 296 l 575 296 l 575 -2 l 377 -2 l 377 295 l 76 295 l 76 496 l 375 496 l 375 795 l 577 795 l 577 497 l 873 497 l 873 296 z "},",":{"ha":382,"x_min":68,"x_max":320,"o":"m 320 21 l 163 -258 l 68 -258 l 192 1 l 74 1 l 74 253 l 320 253 l 320 21 z "},"-":{"ha":562,"x_min":75,"x_max":499,"o":"m 499 337 l 75 337 l 75 536 l 499 536 l 499 337 z "},".":{"ha":397,"x_min":80,"x_max":330,"o":"m 330 -1 l 80 -1 l 80 252 l 330 252 l 330 -1 z "},"/":{"ha":1100,"x_min":150,"x_max":1009,"o":"m 1009 1160 l 316 -54 l 150 -54 l 846 1160 l 1009 1160 z "},":":{"ha":392,"x_min":72,"x_max":327,"o":"m 327 578 l 76 578 l 76 830 l 327 830 l 327 578 m 323 6 l 72 6 l 72 258 l 323 258 l 323 6 z "},";":{"ha":387,"x_min":70,"x_max":325,"o":"m 325 570 l 74 570 l 74 822 l 325 822 l 325 570 m 322 22 l 165 -257 l 70 -257 l 194 1 l 76 1 l 76 254 l 322 254 l 322 22 z "},"<":{"ha":923,"x_min":68,"x_max":857,"o":"m 857 583 l 353 404 l 853 221 l 853 11 l 68 306 l 68 503 l 857 795 l 857 583 z "},"=":{"ha":980,"x_min":70,"x_max":915,"o":"m 911 551 l 70 551 l 70 752 l 911 752 l 911 551 m 915 134 l 75 134 l 75 336 l 915 336 l 915 134 z "},">":{"ha":927,"x_min":73,"x_max":861,"o":"m 861 298 l 76 3 l 76 213 l 576 397 l 73 575 l 73 787 l 861 495 l 861 298 z "},"?":{"ha":904,"x_min":63,"x_max":834,"o":"m 834 803 q 760 600 834 689 q 622 477 729 562 q 547 380 547 418 l 547 313 l 337 313 l 337 359 q 357 514 337 467 q 405 583 361 524 q 468 637 419 603 q 541 697 522 675 q 575 784 575 737 q 554 873 575 838 q 484 923 532 907 q 441 930 462 930 q 329 864 377 930 q 289 774 292 812 l 284 729 l 63 756 q 177 1017 63 912 q 460 1123 291 1123 q 719 1053 622 1123 q 834 803 834 970 m 571 -1 l 319 -1 l 319 252 l 571 252 l 571 -1 z "},"@":{"ha":1083,"x_min":59,"x_max":1045,"o":"m 1045 606 q 946 329 1045 451 q 711 205 845 205 q 626 262 654 205 q 609 319 617 281 l 567 272 q 507 226 539 241 q 433 211 475 211 q 299 276 351 211 q 246 429 246 342 q 355 655 246 558 q 556 742 453 742 q 624 726 596 742 q 664 678 653 710 l 678 639 l 706 725 l 825 728 l 717 328 q 712 290 712 309 q 718 257 712 270 q 739 245 725 245 q 897 357 824 245 q 969 594 969 469 q 844 851 969 755 q 564 939 729 939 q 260 813 386 939 q 134 509 134 686 q 262 190 134 323 q 575 58 391 58 q 805 110 710 58 q 918 206 874 147 q 948 258 932 232 l 1039 258 q 998 189 1019 223 q 853 58 940 108 q 573 -12 732 -12 q 209 139 359 -12 q 59 503 59 290 q 207 861 59 712 q 564 1011 355 1011 q 896 900 755 1011 q 1045 606 1045 782 m 652 583 q 631 672 652 638 q 570 705 610 705 q 436 591 501 705 q 371 366 371 476 q 392 288 371 319 q 465 251 417 251 q 596 377 534 251 q 652 583 652 492 z "},"A":{"ha":1080,"x_min":42,"x_max":1051,"o":"m 1051 0 l 766 0 l 700 223 l 343 223 l 272 0 l 42 0 l 403 1116 l 705 1116 l 1051 0 m 639 435 l 525 818 l 408 435 l 639 435 z "},"B":{"ha":1046,"x_min":94,"x_max":1009,"o":"m 1009 305 q 906 82 1009 168 q 655 -1 805 -1 l 94 0 l 94 1116 l 700 1116 q 893 1029 807 1116 q 983 819 983 939 q 929 662 983 723 q 790 578 881 607 q 950 480 891 551 q 1009 305 1009 409 m 715 797 q 683 883 715 855 q 569 914 647 914 l 356 914 l 356 673 l 582 673 q 680 708 644 673 q 715 797 715 742 m 736 344 q 705 430 736 394 q 601 472 667 472 l 355 472 l 355 208 l 589 208 q 697 243 659 208 q 736 344 736 279 z "},"C":{"ha":1088,"x_min":72,"x_max":1022,"o":"m 1022 391 q 897 103 993 204 q 583 -14 785 -14 q 216 143 361 -14 q 72 550 72 300 q 206 954 72 787 q 562 1130 347 1130 q 903 1004 787 1130 q 1022 694 1004 895 l 754 681 q 713 843 754 779 q 573 919 665 919 q 409 822 456 919 q 367 546 367 737 q 413 301 367 391 q 575 196 466 196 q 714 257 659 196 q 768 403 768 319 l 1022 391 z "},"D":{"ha":1051,"x_min":108,"x_max":1024,"o":"m 1024 549 q 878 155 1024 311 q 503 0 733 0 l 108 0 l 108 1116 l 483 1116 q 889 954 745 1116 q 1024 549 1024 801 m 760 559 q 694 790 760 696 q 499 893 621 893 l 375 893 l 375 223 l 501 223 q 694 328 621 223 q 760 559 760 423 z "},"E":{"ha":943,"x_min":116,"x_max":911,"o":"m 911 0 l 116 0 l 116 1116 l 911 1116 l 911 893 l 377 893 l 377 670 l 794 670 l 794 456 l 373 456 l 373 223 l 911 223 l 911 0 z "},"F":{"ha":927,"x_min":95,"x_max":890,"o":"m 890 893 l 354 893 l 353 670 l 780 670 l 780 456 l 353 456 l 353 -1 l 95 0 l 95 1116 l 890 1115 l 890 893 z "},"G":{"ha":1057,"x_min":67,"x_max":994,"o":"m 994 754 l 741 720 q 699 854 731 805 q 578 926 658 914 q 562 928 571 927 q 545 929 553 929 q 384 810 438 929 q 339 565 339 712 q 340 530 339 542 q 343 491 340 517 q 403 275 356 344 q 557 200 455 200 q 683 239 630 200 q 744 366 744 286 l 744 394 l 529 394 l 529 602 l 993 602 l 991 0 l 871 0 l 832 126 q 702 19 766 52 q 542 -19 631 -19 q 266 65 378 -19 q 114 274 165 139 q 67 549 67 396 q 120 834 67 704 q 280 1053 176 974 q 552 1140 395 1140 q 861 1031 750 1140 q 994 754 960 935 z "},"H":{"ha":1013,"x_min":78,"x_max":951,"o":"m 951 0 l 684 0 l 684 456 l 341 456 l 341 0 l 78 0 l 79 1116 l 344 1116 l 344 670 l 686 670 l 686 1116 l 951 1116 l 951 0 z "},"I":{"ha":446,"x_min":97,"x_max":360,"o":"m 360 0 l 97 0 l 97 1116 l 360 1116 l 360 0 z "},"J":{"ha":674,"x_min":43,"x_max":575,"o":"m 575 311 q 469 47 575 131 q 242 -20 385 -20 q 132 -12 208 -20 q 43 1 56 -4 l 43 216 l 86 211 q 134 205 111 208 q 175 203 157 203 q 189 203 182 203 q 198 205 196 205 q 289 253 268 212 q 310 414 310 293 l 310 1116 l 574 1116 l 575 311 z "},"K":{"ha":1064,"x_min":118,"x_max":1032,"o":"m 1032 0 l 735 0 l 526 474 l 370 260 l 370 0 l 118 0 l 118 1116 l 374 1116 l 374 597 l 715 1116 l 969 1116 l 702 714 l 1032 0 z "},"L":{"ha":860,"x_min":112,"x_max":821,"o":"m 821 0 l 112 0 l 112 1116 l 375 1116 l 375 223 l 821 223 l 821 0 z "},"M":{"ha":1327,"x_min":85,"x_max":1269,"o":"m 1269 0 l 1013 0 l 1011 895 l 737 0 l 564 0 l 300 889 l 301 0 l 85 0 l 87 1116 l 482 1116 l 669 447 l 869 1116 l 1269 1116 l 1269 0 z "},"N":{"ha":974,"x_min":56,"x_max":906,"o":"m 906 0 l 686 0 l 263 745 l 263 0 l 56 0 l 56 1116 l 337 1116 l 705 464 l 705 1116 l 906 1116 l 906 0 z "},"O":{"ha":1092,"x_min":75,"x_max":1028,"o":"m 1028 558 q 980 282 1028 406 q 827 67 927 144 q 559 -17 717 -17 q 194 163 327 -17 q 75 565 75 325 q 208 956 75 795 q 572 1128 348 1128 q 833 1043 726 1128 q 981 832 930 967 q 1028 558 1028 708 m 755 567 q 742 726 755 660 q 685 858 724 812 q 558 913 638 913 q 426 851 477 913 q 365 710 385 800 q 350 551 350 638 q 366 393 350 465 q 430 253 387 303 q 560 192 481 192 q 686 253 640 192 q 742 397 725 302 q 755 567 755 470 z "},"P":{"ha":993,"x_min":99,"x_max":961,"o":"m 961 762 q 859 515 961 618 q 613 412 757 412 l 357 412 l 357 0 l 99 0 l 100 1116 l 612 1116 q 859 1012 757 1116 q 961 762 961 907 m 699 760 q 657 866 699 827 q 534 909 612 909 l 359 909 l 359 615 l 554 615 q 656 658 613 615 q 699 760 699 701 z "},"Q":{"ha":1099,"x_min":81,"x_max":1028,"o":"m 1028 561 q 979 275 1028 393 q 805 47 927 149 q 804 30 804 34 q 814 -3 804 15 q 845 -29 827 -21 q 888 -36 864 -36 q 899 -36 893 -36 q 909 -35 906 -35 l 998 -27 l 998 -225 q 951 -234 974 -231 q 903 -237 928 -237 q 805 -230 836 -237 q 722 -188 760 -220 q 662 -91 685 -157 q 644 -14 644 -42 l 603 -16 q 355 28 459 -16 q 160 200 228 81 q 81 564 81 337 q 212 954 81 793 q 576 1125 353 1125 q 837 1041 729 1125 q 982 832 932 967 q 1028 561 1028 708 m 760 565 q 747 723 760 657 q 691 854 730 808 q 564 909 644 909 q 427 848 477 909 q 369 706 387 799 q 356 549 356 638 q 372 390 356 463 q 435 250 393 300 q 566 190 486 190 q 692 251 645 190 q 747 395 731 301 q 760 565 760 468 z "},"R":{"ha":1053,"x_min":73,"x_max":988,"o":"m 988 0 l 692 0 l 524 456 l 335 456 l 335 0 l 73 0 l 73 1116 l 604 1115 q 882 1021 783 1115 q 974 789 974 933 q 925 611 974 686 q 782 492 876 536 l 988 0 m 701 783 q 654 889 701 850 q 522 927 607 927 l 335 927 l 335 636 l 536 636 q 655 676 610 636 q 701 783 701 715 z "},"S":{"ha":1071,"x_min":75,"x_max":996,"o":"m 996 360 q 858 86 996 193 q 525 -18 724 -18 q 228 64 341 -18 q 81 276 126 137 l 75 294 l 318 354 l 327 326 q 380 248 339 285 q 480 200 427 207 q 546 195 515 195 q 678 226 630 195 q 726 305 726 256 q 699 377 726 340 q 612 425 678 406 q 492 450 582 434 q 365 481 401 467 q 224 559 270 520 q 144 689 163 610 q 131 792 131 744 q 252 1049 131 951 q 537 1142 366 1142 q 803 1086 705 1142 q 956 900 901 1030 l 964 881 l 738 805 l 731 826 q 655 910 713 879 q 540 938 603 938 q 444 917 485 938 q 390 856 403 896 q 386 827 386 841 q 445 750 386 780 q 560 714 488 727 q 640 702 600 708 q 811 649 745 681 q 943 544 898 608 q 996 360 996 470 z "},"T":{"ha":948,"x_min":61,"x_max":875,"o":"m 875 893 l 598 893 l 598 0 l 336 0 l 336 893 l 61 893 l 61 1116 l 875 1116 l 875 893 z "},"U":{"ha":1018,"x_min":70,"x_max":956,"o":"m 956 425 q 931 210 956 289 q 808 50 896 104 q 520 -12 706 -12 q 164 107 273 -12 q 70 410 70 209 l 70 1116 l 353 1116 l 353 501 q 387 253 353 308 q 537 198 421 198 q 697 250 663 198 q 731 493 731 303 l 731 1116 l 956 1116 l 956 425 z "},"V":{"ha":1033,"x_min":38,"x_max":1006,"o":"m 1006 1116 l 665 0 l 377 0 l 38 1116 l 321 1116 l 549 329 l 779 1116 l 1006 1116 z "},"W":{"ha":1514,"x_min":36,"x_max":1476,"o":"m 1476 1116 l 1205 0 l 942 0 l 759 736 l 580 0 l 323 0 l 36 1116 l 303 1116 l 475 364 l 654 1116 l 903 1116 l 1094 366 l 1258 1116 l 1476 1116 z "},"X":{"ha":1059,"x_min":27,"x_max":1027,"o":"m 1027 0 l 726 0 l 504 398 l 280 0 l 27 0 l 373 591 l 71 1116 l 375 1116 l 554 778 l 740 1116 l 988 1116 l 686 594 l 1027 0 z "},"Y":{"ha":1026,"x_min":27,"x_max":979,"o":"m 979 1116 l 628 471 l 628 0 l 365 0 l 365 466 l 27 1116 l 326 1116 l 533 690 l 745 1116 l 979 1116 z "},"Z":{"ha":1038,"x_min":70,"x_max":970,"o":"m 970 0 l 70 0 l 70 200 l 631 893 l 112 893 l 112 1116 l 959 1116 l 959 913 l 396 223 l 970 223 l 970 0 z "},"[":{"ha":483,"x_min":64,"x_max":414,"o":"m 414 1117 l 250 1117 l 250 -68 l 413 -69 l 413 -169 l 64 -169 l 66 1221 l 414 1221 l 414 1117 z "},"\\":{"ha":662,"x_min":63,"x_max":593,"o":"m 593 -2 l 430 -2 l 63 1117 l 230 1117 l 593 -2 z "},"]":{"ha":497,"x_min":75,"x_max":427,"o":"m 427 -173 l 77 -173 l 77 -73 l 237 -73 l 237 1114 l 75 1114 l 75 1218 l 427 1218 l 427 -173 z "},"^":{"ha":747,"x_min":81,"x_max":689,"o":"m 689 857 l 514 857 l 383 946 l 253 858 l 81 858 l 381 1101 l 689 857 z "},"_":{"ha":962,"x_min":0,"x_max":969,"o":"m 969 -179 l 0 -179 l 0 -88 l 969 -88 l 969 -179 z "},"`":{"ha":543,"x_min":66,"x_max":470,"o":"m 470 976 l 431 880 l 66 1014 l 115 1149 l 470 976 z "},"a":{"ha":904,"x_min":65,"x_max":834,"o":"m 834 0 l 597 0 l 587 66 q 585 90 586 79 q 583 118 583 100 q 547 74 571 98 q 462 13 508 36 q 327 -17 399 -17 q 144 39 216 -17 q 65 221 65 103 q 127 385 65 320 q 280 472 181 440 q 470 507 359 496 l 573 517 l 573 604 q 538 660 573 637 q 460 682 502 682 q 360 651 397 682 q 317 565 324 620 l 89 585 l 91 599 q 237 788 112 723 q 485 842 343 842 q 685 808 606 842 q 784 729 750 779 q 813 648 810 691 l 820 579 l 820 94 q 821 66 820 76 q 827 34 822 55 l 834 0 m 576 393 l 501 386 q 381 343 435 381 q 319 245 319 301 q 348 168 319 208 q 378 144 359 152 q 418 136 396 136 q 522 180 475 136 q 575 300 575 229 l 576 393 z "},"b":{"ha":903,"x_min":89,"x_max":853,"o":"m 853 414 q 767 94 853 205 q 533 -15 684 -15 q 383 16 441 -15 q 271 115 325 46 l 207 0 l 89 0 l 89 1132 l 335 1132 l 335 746 l 342 762 q 404 828 362 803 q 536 858 456 858 q 726 790 651 858 q 825 623 792 731 q 853 414 853 530 m 595 412 q 571 609 595 546 q 475 683 543 683 q 449 681 462 683 q 365 627 400 672 q 329 534 329 581 l 329 282 q 361 196 329 234 q 449 152 396 152 q 463 153 455 152 q 475 155 470 154 q 575 237 550 170 q 595 412 595 288 z "},"c":{"ha":909,"x_min":68,"x_max":845,"o":"m 845 526 l 613 517 q 591 618 606 593 q 485 662 564 662 q 372 583 409 662 q 342 424 342 520 q 343 399 342 413 q 345 369 343 386 q 371 246 353 281 q 477 188 401 188 q 573 226 535 188 q 610 328 610 263 l 841 313 q 732 83 814 163 q 471 -7 639 -7 q 187 97 299 -7 q 68 390 68 207 q 175 706 68 575 q 472 846 290 846 q 683 798 600 846 q 795 679 754 757 q 845 526 828 618 z "},"d":{"ha":914,"x_min":54,"x_max":814,"o":"m 814 0 l 582 0 l 582 128 q 492 20 539 54 q 361 -22 437 -22 q 343 -22 352 -22 q 332 -20 335 -20 q 117 110 184 -5 q 54 418 54 216 q 83 614 54 521 q 179 784 117 723 q 359 855 253 855 q 480 830 425 855 q 559 771 528 808 l 573 751 l 573 1132 l 813 1132 l 814 0 m 571 298 l 571 558 q 539 637 571 596 q 457 684 502 684 q 343 595 382 684 q 311 417 311 522 q 337 245 311 310 q 448 158 371 158 q 536 201 500 158 q 571 298 571 243 z "},"e":{"ha":922,"x_min":73,"x_max":861,"o":"m 861 377 l 333 377 l 333 306 q 381 202 333 247 q 493 157 430 157 q 594 199 549 157 q 632 262 632 234 l 632 290 l 859 275 l 853 256 q 723 64 812 133 q 472 -14 623 -14 q 184 110 300 -14 q 73 400 73 229 q 171 712 73 583 q 469 858 282 858 q 750 739 640 858 q 861 440 861 621 l 861 377 m 615 522 q 618 554 618 536 q 583 652 618 612 q 483 696 544 696 q 376 651 423 696 q 329 547 329 606 q 331 522 329 535 l 615 522 z "},"f":{"ha":615,"x_min":70,"x_max":572,"o":"m 572 948 l 492 948 q 462 947 479 948 q 428 932 445 946 q 409 905 414 921 q 403 866 403 889 l 403 816 l 549 816 l 549 627 l 406 627 l 406 0 l 166 0 l 166 628 l 70 628 l 70 816 l 165 816 l 166 919 q 179 981 166 941 q 223 1062 196 1032 q 344 1128 267 1113 q 482 1137 387 1137 l 572 1132 l 572 948 z "},"g":{"ha":1046,"x_min":62,"x_max":965,"o":"m 965 798 q 939 805 951 803 q 909 807 926 807 q 899 807 902 807 q 833 789 857 807 q 808 747 808 771 l 808 738 q 857 662 844 696 q 870 578 870 628 q 761 388 870 459 q 522 324 663 324 q 461 329 502 324 q 401 334 419 334 q 351 323 370 334 q 327 283 332 311 q 325 268 325 273 q 368 213 325 230 q 478 197 405 197 q 524 197 501 197 q 570 198 546 197 q 753 187 689 198 q 898 127 850 171 q 958 -25 958 73 q 882 -189 958 -124 q 700 -271 817 -245 q 480 -294 602 -294 q 290 -285 357 -294 q 129 -234 184 -271 q 62 -106 62 -189 q 102 -11 62 -51 q 198 47 136 22 q 127 106 154 67 q 100 195 100 144 q 128 281 100 240 q 202 348 155 322 l 256 377 q 155 459 189 411 q 117 583 117 511 q 237 776 117 708 q 499 835 342 835 q 620 824 556 835 q 712 802 684 813 q 732 885 712 845 q 798 948 756 930 q 845 956 809 952 q 914 961 882 961 q 965 954 951 961 l 965 798 m 633 581 q 601 669 633 639 q 491 702 566 702 q 394 668 428 702 q 360 581 360 634 q 394 492 360 526 q 491 457 427 457 q 595 491 558 457 q 633 581 633 525 m 734 -73 q 688 -17 728 -33 q 600 -6 657 -6 q 562 -7 588 -6 q 523 -7 536 -7 q 472 -5 504 -7 q 380 0 399 0 q 305 -10 329 0 q 274 -57 274 -23 q 274 -67 274 -64 q 334 -134 281 -116 q 446 -145 370 -145 l 489 -145 q 647 -136 592 -145 q 735 -81 735 -120 q 734 -73 735 -75 z "},"h":{"ha":852,"x_min":75,"x_max":792,"o":"m 792 0 l 550 0 l 549 541 q 520 619 549 586 q 446 660 491 652 q 431 661 436 661 q 345 603 379 661 q 316 484 316 551 l 319 0 l 75 0 l 75 1132 l 316 1132 l 316 725 q 536 857 388 857 q 723 761 649 857 q 792 549 792 671 l 792 0 z "},"i":{"ha":520,"x_min":142,"x_max":386,"o":"m 385 908 l 142 908 l 142 1132 l 385 1132 l 385 908 m 386 0 l 142 0 l 142 838 l 386 838 l 386 0 z "},"j":{"ha":521,"x_min":-11,"x_max":385,"o":"m 384 909 l 143 909 l 143 1132 l 384 1132 l 384 909 m 384 27 q 384 -1 384 13 q 385 -28 384 -15 q 366 -161 385 -118 q 317 -226 351 -197 q 235 -273 279 -258 q 139 -287 191 -287 q 104 -286 116 -287 q 56 -281 93 -285 l -11 -272 l -11 -79 q 35 -89 10 -89 q 95 -74 67 -89 q 133 -37 123 -60 q 142 3 140 -19 q 144 30 144 24 q 144 55 144 46 l 143 838 l 384 838 l 384 27 z "},"k":{"ha":975,"x_min":121,"x_max":946,"o":"m 946 0 l 673 0 l 499 374 l 367 216 l 367 0 l 122 0 l 121 1132 l 369 1132 l 369 462 l 672 838 l 914 838 l 677 549 l 946 0 z "},"l":{"ha":482,"x_min":119,"x_max":355,"o":"m 355 0 l 119 0 l 119 1132 l 355 1132 l 355 0 z "},"m":{"ha":1308,"x_min":67,"x_max":1233,"o":"m 1233 0 l 992 0 l 992 524 q 975 608 992 581 q 889 646 952 646 q 798 605 832 646 q 767 512 767 567 l 768 0 l 528 0 l 528 543 q 502 615 528 587 q 425 646 474 646 q 337 613 369 646 q 305 529 305 580 l 305 0 l 67 1 l 67 838 l 292 838 l 292 701 q 522 841 361 841 q 746 701 677 841 q 842 804 783 771 q 984 838 902 838 q 1157 787 1096 838 q 1232 585 1232 725 l 1233 0 z "},"n":{"ha":857,"x_min":79,"x_max":794,"o":"m 794 0 l 554 0 l 554 529 q 531 615 554 583 q 446 653 503 653 q 348 588 382 653 q 319 454 319 533 l 319 0 l 79 0 l 80 838 l 308 838 l 308 684 q 399 800 340 761 q 545 840 457 840 q 708 795 650 840 q 779 681 758 756 q 794 533 794 624 l 794 0 z "},"o":{"ha":927,"x_min":77,"x_max":872,"o":"m 872 427 q 760 103 872 229 q 476 -22 649 -22 q 171 112 278 -22 q 77 422 77 232 q 172 725 77 607 q 473 858 279 858 q 775 728 668 858 q 872 427 872 611 m 613 398 q 607 532 613 483 q 570 649 596 609 q 475 698 536 698 q 357 623 390 698 q 333 454 333 567 q 340 315 333 365 q 377 194 350 235 q 472 143 411 143 q 592 228 560 143 q 613 398 613 284 z "},"p":{"ha":880,"x_min":76,"x_max":816,"o":"m 816 419 q 790 216 816 305 q 698 54 760 111 q 513 -12 626 -12 q 390 15 437 -12 q 329 74 358 33 l 316 94 l 316 -274 l 77 -274 l 76 838 l 300 838 l 300 706 q 385 805 346 779 q 523 841 437 841 q 816 419 816 841 m 570 422 q 549 586 570 522 q 456 673 520 673 q 442 672 447 673 q 353 631 390 665 q 315 551 315 596 l 315 275 q 349 197 315 230 q 427 158 380 167 q 448 156 438 156 q 544 247 512 156 q 570 422 570 320 z "},"q":{"ha":895,"x_min":85,"x_max":836,"o":"m 836 -275 l 594 -275 l 594 99 l 586 83 q 525 19 567 43 q 396 -11 474 -11 q 152 128 233 -11 q 85 424 85 243 q 170 739 85 628 q 400 845 253 845 q 549 815 490 845 q 656 718 603 787 l 719 838 l 836 838 l 836 -275 m 599 307 l 599 554 q 569 639 599 602 q 483 682 535 682 q 469 681 477 682 q 457 679 462 680 q 358 598 384 664 q 339 427 339 546 q 362 233 339 294 q 456 160 390 160 q 482 163 469 160 q 565 215 532 171 q 599 307 599 259 z "},"r":{"ha":578,"x_min":103,"x_max":543,"o":"m 543 598 q 469 594 488 598 q 408 561 435 588 q 355 462 372 525 q 339 314 339 398 l 339 0 l 103 0 l 103 838 l 327 838 l 327 673 q 338 708 330 689 q 350 735 346 728 q 430 831 398 806 q 497 855 462 855 l 543 855 l 543 598 z "},"s":{"ha":876,"x_min":75,"x_max":815,"o":"m 811 305 q 815 259 815 282 q 707 64 815 142 q 447 -14 599 -14 q 316 1 381 -14 q 177 57 231 20 q 89 179 109 104 l 75 232 l 274 260 l 284 230 q 345 173 296 193 q 454 152 394 152 q 557 172 516 152 q 603 231 603 194 q 602 240 603 237 q 522 294 596 279 q 381 316 451 305 q 255 348 287 335 q 155 422 195 371 q 114 495 127 459 q 102 575 102 530 q 209 782 102 710 q 443 845 302 845 q 663 790 588 845 q 774 628 725 744 l 602 581 l 591 612 q 533 670 578 649 q 435 691 488 691 q 349 672 384 691 q 313 620 313 654 q 317 599 313 612 q 400 551 327 569 q 549 525 423 545 q 684 489 644 509 q 769 415 739 461 q 811 305 797 372 z "},"t":{"ha":696,"x_min":66,"x_max":627,"o":"m 627 0 q 588 -7 619 -4 q 519 -10 557 -10 q 426 -7 472 -10 q 350 4 380 -3 q 243 69 284 20 q 202 184 202 118 l 202 643 l 66 643 l 66 838 l 208 838 l 227 1076 l 437 1094 l 437 838 l 615 838 l 615 644 l 437 644 l 437 266 q 447 222 437 241 q 480 194 458 204 q 495 189 486 190 q 511 187 503 187 q 535 188 526 188 l 627 181 l 627 0 z "},"u":{"ha":853,"x_min":66,"x_max":780,"o":"m 780 0 l 553 0 l 553 141 q 303 -15 488 -15 q 136 51 205 -15 q 66 211 66 116 l 66 838 l 309 838 l 309 292 q 327 212 309 237 q 401 181 348 181 q 507 233 469 181 q 537 330 537 275 l 537 838 l 780 838 l 780 0 z "},"v":{"ha":734,"x_min":24,"x_max":701,"o":"m 701 838 l 495 0 l 277 0 l 24 838 l 256 838 l 392 349 l 508 838 l 701 838 z "},"w":{"ha":1284,"x_min":25,"x_max":1248,"o":"m 1248 838 l 993 0 l 765 0 l 642 522 l 506 0 l 288 0 l 25 838 l 286 838 l 428 312 l 559 838 l 784 838 l 910 309 l 1054 838 l 1248 838 z "},"x":{"ha":863,"x_min":28,"x_max":824,"o":"m 824 0 l 553 0 l 388 278 l 226 0 l 28 0 l 282 440 l 56 838 l 327 838 l 455 604 l 580 838 l 784 838 l 557 442 l 824 0 z "},"y":{"ha":791,"x_min":19,"x_max":756,"o":"m 756 838 l 475 -36 q 415 -170 446 -128 q 346 -232 390 -205 q 261 -261 313 -253 q 176 -268 221 -268 q 168 -268 171 -268 q 145 -267 155 -268 q 126 -267 135 -267 l 70 -261 l 70 -77 l 102 -78 q 158 -82 123 -78 q 210 -86 194 -86 q 223 -85 217 -86 q 233 -84 229 -85 q 292 -52 268 -80 q 317 10 317 -23 q 313 36 317 23 l 19 838 l 276 838 l 430 353 l 578 838 l 756 838 z "},"z":{"ha":796,"x_min":75,"x_max":736,"o":"m 736 0 l 75 0 l 75 176 l 440 670 l 106 670 l 106 838 l 717 838 l 717 681 l 350 181 l 736 181 l 736 0 z "},"{":{"ha":587,"x_min":75,"x_max":526,"o":"m 526 -149 l 410 -149 q 333 -136 364 -149 q 265 -89 301 -122 q 224 -36 238 -66 q 205 67 205 6 l 205 403 q 186 456 205 432 q 115 488 160 488 l 75 488 l 75 626 l 97 626 q 109 626 105 626 q 156 630 144 626 q 182 646 169 634 q 201 668 194 658 q 208 692 208 678 l 208 1046 q 248 1165 208 1112 q 311 1219 273 1197 q 377 1241 350 1241 l 526 1241 l 526 1096 l 451 1096 q 413 1083 429 1096 q 393 1047 397 1070 l 393 684 q 364 614 393 647 q 311 574 347 594 q 250 554 274 554 q 305 542 274 554 q 348 517 337 530 q 380 461 369 488 q 390 401 390 435 l 393 39 q 409 12 396 23 q 428 1 417 5 q 448 -3 440 -3 l 526 -3 l 526 -149 z "},"|":{"ha":296,"x_min":71,"x_max":242,"o":"m 242 -274 l 71 -274 l 71 1113 l 241 1113 l 242 -274 z "},"}":{"ha":591,"x_min":80,"x_max":531,"o":"m 531 494 l 491 494 q 420 462 446 494 q 406 437 410 448 q 401 409 401 425 l 401 73 q 382 -29 401 12 q 341 -83 369 -59 q 273 -129 305 -115 q 196 -144 241 -144 l 80 -144 l 80 4 l 158 4 q 178 7 168 4 q 196 17 189 10 q 207 30 203 25 q 213 45 211 36 l 213 406 q 224 468 213 440 q 258 522 234 490 q 300 549 269 537 q 356 560 331 560 q 296 579 332 560 q 242 620 259 599 q 213 689 213 655 l 213 1054 q 193 1088 209 1075 q 155 1102 177 1102 l 80 1102 l 80 1247 l 228 1247 q 294 1226 256 1247 q 358 1170 332 1204 q 398 1052 398 1117 l 398 698 q 404 674 398 684 q 425 651 411 663 q 457 635 439 638 q 509 632 475 632 l 531 632 l 531 494 z "},"~":{"ha":735,"x_min":85,"x_max":673,"o":"m 673 1078 q 648 946 673 991 q 528 882 613 882 q 440 912 496 882 q 332 970 384 941 q 247 1001 272 1001 q 212 989 225 1001 q 200 945 200 976 l 200 919 l 85 919 q 121 1051 92 1004 q 231 1114 159 1114 q 340 1081 283 1114 q 432 1021 386 1051 q 533 988 488 988 q 559 1021 551 988 q 565 1058 565 1042 l 565 1078 l 673 1078 z "},"Ä":{"ha":1141,"x_min":70,"x_max":1079,"o":"m 544 1305 q 517 1236 544 1266 q 452 1206 491 1206 q 386 1234 414 1206 q 358 1301 358 1263 q 385 1367 358 1340 q 448 1395 411 1395 q 515 1369 486 1395 q 544 1305 544 1343 m 806 1301 q 782 1233 806 1263 q 721 1204 758 1204 q 652 1229 681 1204 q 623 1291 623 1254 q 648 1360 623 1331 q 713 1389 674 1389 q 778 1363 750 1389 q 806 1301 806 1338 m 1079 -2 l 795 -2 l 729 231 l 371 231 l 301 -2 l 70 -2 l 431 1117 l 734 1117 l 1079 -2 m 668 438 l 553 820 l 436 438 l 668 438 z "},"Å":{"ha":1135,"x_min":71,"x_max":1080,"o":"m 760 1356 q 715 1237 760 1287 q 604 1186 670 1186 q 476 1236 530 1186 q 422 1356 422 1285 q 471 1475 422 1425 q 589 1525 520 1525 q 710 1476 660 1525 q 760 1356 760 1426 m 1080 -4 l 795 -4 l 729 226 l 372 226 l 301 0 l 71 0 l 432 1116 l 734 1116 l 1080 -4 m 715 1363 q 678 1447 715 1412 q 589 1482 640 1482 q 503 1444 538 1482 q 467 1353 467 1406 q 505 1267 467 1303 q 596 1232 544 1232 q 681 1271 647 1232 q 715 1363 715 1310 m 668 433 l 554 815 l 437 433 l 668 433 z "},"Ç":{"ha":1089,"x_min":81,"x_max":1017,"o":"m 1017 387 q 1001 287 1017 335 q 925 149 982 229 q 787 34 878 81 q 581 -18 687 -18 l 562 -65 q 670 -95 627 -65 q 718 -192 718 -129 q 672 -280 718 -244 q 556 -316 625 -316 q 491 -307 522 -316 q 426 -280 460 -299 l 392 -261 l 420 -197 l 444 -209 q 493 -228 467 -221 q 540 -235 520 -235 q 578 -225 564 -235 q 591 -194 591 -216 q 570 -146 591 -164 q 509 -128 549 -128 q 493 -129 499 -128 l 457 -133 l 496 -16 l 438 -4 q 184 185 287 28 q 81 546 81 342 q 195 949 81 792 q 558 1126 324 1126 q 816 1065 713 1126 q 959 907 909 1009 q 1014 697 1004 817 l 742 678 q 742 689 742 683 q 742 697 742 694 q 702 840 742 776 q 568 916 652 916 q 405 820 452 916 q 364 544 364 735 q 409 299 364 389 q 570 194 462 194 q 706 255 652 194 q 760 401 760 317 l 1017 387 z "},"É":{"ha":926,"x_min":70,"x_max":864,"o":"m 697 1338 l 324 1199 l 282 1297 l 642 1474 l 697 1338 m 864 0 l 71 0 l 70 1115 l 864 1115 l 864 895 l 331 895 l 331 670 l 747 670 l 747 455 l 326 455 l 326 223 l 864 223 l 864 0 z "},"Ñ":{"ha":995,"x_min":85,"x_max":935,"o":"m 808 1400 q 782 1266 808 1313 q 663 1203 747 1203 q 575 1233 631 1203 q 466 1291 518 1262 q 382 1322 406 1322 q 347 1309 360 1322 q 334 1266 334 1297 l 334 1240 l 219 1240 q 255 1373 226 1325 q 365 1435 293 1435 q 474 1403 417 1435 q 567 1342 520 1372 q 667 1308 622 1308 q 694 1342 685 1308 q 700 1379 700 1363 l 699 1400 l 808 1400 m 935 0 l 715 0 l 288 753 l 288 0 l 85 0 l 85 1117 l 366 1117 l 734 468 l 734 1117 l 935 1117 l 935 0 z "},"Ö":{"ha":1093,"x_min":76,"x_max":1029,"o":"m 520 1282 q 493 1213 520 1242 q 427 1183 466 1183 q 361 1211 389 1183 q 334 1279 334 1239 q 360 1344 334 1316 q 424 1372 387 1372 q 491 1346 462 1372 q 520 1282 520 1321 m 782 1279 q 758 1210 782 1239 q 697 1181 734 1181 q 628 1206 657 1181 q 599 1268 599 1231 q 624 1336 599 1307 q 688 1366 650 1366 q 754 1341 726 1366 q 782 1279 782 1316 m 1029 556 q 981 279 1029 403 q 829 65 928 142 q 561 -21 718 -21 q 195 160 328 -21 q 76 564 76 323 q 208 954 76 792 q 573 1125 349 1125 q 834 1041 726 1125 q 983 829 932 964 q 1029 556 1029 706 m 756 566 q 743 723 756 658 q 686 856 726 811 q 559 911 639 911 q 427 850 478 911 q 366 708 386 799 q 351 549 351 636 q 368 391 351 464 q 431 251 388 301 q 562 190 483 190 q 687 250 641 190 q 743 395 726 300 q 756 566 756 467 z "},"Ü":{"ha":1030,"x_min":75,"x_max":964,"o":"m 511 1319 q 484 1250 511 1280 q 419 1220 458 1220 q 353 1248 381 1220 q 326 1315 326 1276 q 352 1381 326 1353 q 415 1408 378 1408 q 482 1383 454 1408 q 511 1319 511 1357 m 774 1315 q 749 1247 774 1276 q 688 1218 725 1218 q 619 1243 649 1218 q 590 1305 590 1268 q 616 1374 590 1345 q 680 1403 641 1403 q 745 1377 717 1403 q 774 1315 774 1352 m 964 424 q 938 209 964 288 q 814 49 903 103 q 525 -14 710 -14 q 169 105 278 -14 q 75 409 75 208 l 75 1115 l 358 1115 l 357 500 q 391 252 357 307 q 542 197 426 197 q 702 249 668 197 q 736 491 736 302 l 737 1115 l 962 1115 l 964 424 z "},"á":{"ha":909,"x_min":73,"x_max":842,"o":"m 688 1017 l 315 879 l 273 976 l 633 1153 l 688 1017 m 842 -1 l 604 -1 q 600 28 604 4 q 595 62 596 51 q 592 88 594 74 q 591 115 591 102 q 554 71 578 94 q 470 11 517 33 q 335 -20 407 -20 q 152 36 223 -20 q 73 218 73 100 q 135 382 73 317 q 287 469 189 438 q 477 505 366 494 l 581 514 l 581 602 q 546 657 581 635 q 468 680 511 680 q 368 649 405 680 q 324 562 332 618 l 97 582 l 99 596 q 245 785 120 720 q 492 840 351 840 q 692 805 613 840 q 791 727 757 777 q 821 646 817 689 l 828 576 l 828 91 q 834 30 828 59 q 837 14 835 21 q 842 -1 840 7 m 583 390 l 509 384 q 389 341 443 378 q 327 243 327 299 q 334 206 327 225 q 356 166 341 186 q 386 142 367 149 q 426 134 404 134 q 530 178 483 134 q 583 298 583 226 l 583 390 z "},"à":{"ha":918,"x_min":92,"x_max":862,"o":"m 700 1002 l 661 906 l 295 1040 l 344 1176 l 700 1002 m 862 -1 l 624 -1 q 619 28 623 4 q 614 62 615 51 q 612 88 613 74 q 610 115 610 102 q 574 71 597 94 q 490 11 536 33 q 354 -20 427 -20 q 172 36 242 -20 q 92 218 92 100 q 155 382 92 317 q 307 469 208 438 q 497 505 386 494 l 601 514 l 601 602 q 566 657 601 635 q 488 680 530 680 q 388 649 425 680 q 344 562 351 618 l 116 582 l 119 596 q 265 785 139 720 q 512 840 371 840 q 712 805 633 840 q 811 727 776 777 q 841 646 837 689 l 848 576 l 848 91 q 854 30 848 59 q 857 14 855 21 q 862 -1 859 7 m 603 390 l 529 384 q 409 341 463 378 q 347 243 347 299 q 354 206 347 225 q 375 166 361 186 q 405 142 387 149 q 446 134 424 134 q 550 178 503 134 q 602 298 602 226 l 603 390 z "},"â":{"ha":916,"x_min":83,"x_max":853,"o":"m 790 917 l 615 917 l 484 1005 l 354 918 l 181 918 l 482 1160 l 790 917 m 853 -2 l 615 -2 q 610 25 612 13 q 605 60 608 37 q 603 91 605 73 q 602 115 602 109 q 565 70 589 94 q 480 9 526 32 q 345 -21 417 -21 q 163 36 234 -21 q 83 217 83 99 q 145 381 83 316 q 298 468 199 437 q 488 504 377 493 l 591 514 l 591 601 q 556 656 591 633 q 478 678 520 678 q 378 647 415 678 q 335 562 342 616 l 107 581 l 110 596 q 256 784 130 719 q 503 839 361 839 q 703 804 624 839 q 802 726 768 775 q 832 644 828 687 l 838 575 l 838 90 q 840 60 838 72 q 845 28 841 49 l 853 -2 m 594 389 l 520 382 q 400 340 454 377 q 338 242 338 298 q 345 204 338 224 q 366 165 352 184 q 397 140 378 148 q 437 132 415 132 q 541 176 494 132 q 594 296 594 225 l 594 389 z "},"ä":{"ha":923,"x_min":86,"x_max":857,"o":"m 440 1012 q 414 942 440 972 q 349 911 387 911 q 283 940 311 911 q 255 1007 255 968 q 282 1073 255 1045 q 345 1101 308 1101 q 412 1075 384 1101 q 440 1012 440 1049 m 703 1007 q 678 939 703 969 q 618 909 654 909 q 550 934 579 909 q 520 997 520 959 q 546 1066 520 1036 q 610 1095 572 1095 q 675 1070 647 1095 q 703 1007 703 1044 m 857 -2 l 619 -2 q 614 26 618 3 q 609 61 610 49 q 607 87 608 73 q 605 115 605 102 q 569 70 594 95 q 485 9 530 31 q 349 -21 422 -21 q 166 36 237 -21 q 86 217 86 99 q 149 381 86 316 q 302 468 202 437 q 492 504 381 493 l 596 514 l 596 601 q 560 656 596 633 q 483 678 525 678 q 383 647 419 678 q 339 562 346 616 l 111 581 l 113 596 q 260 784 134 719 q 507 839 365 839 q 707 804 628 839 q 805 726 771 776 q 836 644 832 687 l 842 575 l 842 90 q 843 60 842 72 q 848 28 845 49 q 853 12 850 20 q 857 -2 856 4 m 598 389 l 524 382 q 403 340 457 377 q 342 242 342 298 q 349 204 342 224 q 370 165 356 184 q 400 140 382 148 q 440 132 419 132 q 545 176 498 132 q 597 296 597 225 l 598 389 z "},"ã":{"ha":910,"x_min":68,"x_max":838,"o":"m 768 1075 q 742 943 768 989 q 623 879 708 879 q 535 909 591 879 q 426 967 478 938 q 342 998 366 998 q 308 987 320 998 q 294 942 294 972 l 294 916 l 180 916 q 213 1049 180 996 q 325 1112 253 1112 q 434 1079 377 1112 q 527 1018 480 1049 q 627 985 582 985 q 654 1018 645 985 q 660 1055 660 1040 l 660 1075 l 768 1075 m 838 -2 l 600 -2 q 595 26 599 3 q 590 61 591 49 q 588 87 589 73 q 586 115 586 102 q 550 70 575 95 q 466 9 511 31 q 330 -21 403 -21 q 148 36 219 -21 q 68 217 68 99 q 131 381 68 316 q 283 468 184 437 q 473 504 362 493 l 577 514 l 577 601 q 541 656 577 633 q 464 678 506 678 q 364 647 401 678 q 320 562 327 616 l 92 581 l 95 596 q 241 784 115 720 q 488 839 346 839 q 688 804 609 839 q 787 726 752 776 q 817 644 813 687 l 824 575 l 824 90 q 830 28 824 57 q 832 17 831 22 q 838 -2 833 15 m 579 389 l 505 382 q 385 340 438 377 q 323 242 323 298 q 330 204 323 224 q 351 165 337 184 q 381 140 363 148 q 422 132 400 132 q 526 176 479 132 q 578 296 578 225 l 579 389 z "},"å":{"ha":913,"x_min":69,"x_max":839,"o":"m 656 1094 q 611 975 656 1025 q 499 925 565 925 q 372 975 426 925 q 317 1095 317 1024 q 366 1213 317 1163 q 485 1263 416 1263 q 606 1214 555 1263 q 656 1094 656 1164 m 839 -2 l 602 -2 q 596 25 599 13 q 592 55 594 37 q 589 85 590 73 q 588 115 588 96 q 551 70 575 94 q 467 9 512 32 q 331 -21 403 -21 q 149 36 220 -21 q 69 217 69 99 q 131 381 69 316 q 284 468 185 437 q 475 504 364 493 l 578 514 l 578 601 q 542 656 578 633 q 464 678 507 678 q 365 647 401 678 q 321 562 328 616 l 94 581 l 96 596 q 242 784 116 720 q 489 839 347 839 q 689 804 610 839 q 788 726 755 775 q 818 644 814 687 l 824 575 l 824 90 q 826 60 824 72 q 831 28 827 49 l 839 -2 m 611 1102 q 574 1185 611 1151 q 485 1220 536 1220 q 398 1182 433 1220 q 362 1092 362 1144 q 401 1006 362 1041 q 492 971 440 971 q 577 1010 542 971 q 611 1102 611 1049 m 581 389 l 506 382 q 385 340 440 377 q 324 241 324 298 q 352 165 324 205 q 382 140 364 148 q 422 132 401 132 q 527 176 480 132 q 579 296 579 225 l 581 389 z "},"ç":{"ha":900,"x_min":67,"x_max":830,"o":"m 830 523 l 607 513 q 581 617 607 581 q 483 660 549 660 q 365 573 401 660 q 337 401 337 508 q 341 300 337 327 q 375 216 349 245 q 474 181 408 181 q 570 224 534 181 q 604 324 604 264 l 828 310 q 812 218 828 261 q 769 134 800 189 q 651 25 729 68 q 478 -18 572 -18 l 464 -65 l 523 -67 q 588 -103 557 -67 q 619 -181 619 -139 q 618 -192 619 -188 q 559 -282 612 -247 q 444 -315 509 -315 q 356 -295 397 -315 l 291 -263 l 319 -202 l 387 -222 q 441 -231 415 -231 q 478 -223 464 -231 q 493 -204 492 -215 q 495 -186 495 -192 q 464 -141 495 -156 q 403 -128 440 -128 l 356 -128 l 395 -15 l 334 0 q 136 145 210 29 q 67 401 67 255 q 165 707 67 584 q 460 841 274 841 q 730 752 641 841 q 830 523 802 679 z "},"é":{"ha":939,"x_min":78,"x_max":866,"o":"m 678 1062 l 305 924 l 263 1021 l 623 1198 l 678 1062 m 866 382 l 338 382 l 338 311 q 386 207 338 252 q 497 162 434 162 q 599 203 554 162 q 637 266 637 239 l 636 294 l 864 280 l 857 261 q 727 68 816 137 q 477 -9 627 -9 q 189 114 305 -9 q 78 404 78 234 q 176 716 78 587 q 475 862 287 862 q 755 744 644 862 q 865 444 865 626 l 866 382 m 608 531 q 611 562 611 545 q 575 660 611 620 q 475 705 537 705 q 369 660 416 705 q 321 556 321 615 q 324 531 321 544 l 608 531 z "},"è":{"ha":926,"x_min":73,"x_max":861,"o":"m 665 996 l 626 900 l 260 1033 l 309 1169 l 665 996 m 861 377 l 333 378 l 333 306 q 381 202 333 247 q 493 157 430 157 q 594 199 549 157 q 632 262 632 234 l 632 290 l 859 275 l 853 256 q 723 64 812 133 q 472 -14 623 -14 q 184 110 300 -14 q 73 400 73 229 q 171 712 73 583 q 469 858 282 858 q 750 739 640 858 q 861 440 861 621 l 861 377 m 615 522 q 618 554 618 536 q 583 652 618 612 q 483 696 544 696 q 376 651 423 696 q 329 547 329 606 q 331 522 329 535 l 615 522 z "},"ê":{"ha":930,"x_min":68,"x_max":857,"o":"m 776 912 l 602 912 l 471 1000 l 341 913 l 168 913 l 469 1155 l 776 912 m 857 377 l 329 377 l 329 306 q 377 202 329 247 q 488 157 425 157 q 589 199 544 157 q 628 262 628 234 l 627 290 l 854 275 l 848 256 q 718 64 807 133 q 467 -14 618 -14 q 180 110 295 -14 q 68 400 68 229 q 166 712 68 583 q 465 858 277 858 q 745 739 635 858 q 856 440 856 621 l 857 377 m 611 522 q 614 552 614 536 q 578 652 614 611 q 477 696 540 696 q 371 651 418 696 q 324 547 324 605 q 327 522 324 535 l 611 522 z "},"ë":{"ha":932,"x_min":68,"x_max":857,"o":"m 426 1056 q 399 986 426 1016 q 335 956 373 956 q 268 984 296 956 q 241 1051 241 1012 q 267 1117 241 1090 q 330 1145 293 1145 q 398 1119 369 1145 q 426 1056 426 1094 m 689 1051 q 664 983 689 1013 q 603 954 639 954 q 535 979 565 954 q 506 1041 506 1004 q 532 1110 506 1080 q 595 1139 557 1139 q 660 1114 632 1139 q 689 1051 689 1088 m 857 387 l 329 387 l 329 316 q 377 212 329 257 q 488 167 425 167 q 589 208 544 167 q 628 271 628 244 l 627 299 l 854 285 l 848 266 q 718 73 806 142 q 467 -4 618 -4 q 180 119 295 -4 q 68 410 68 239 q 166 722 68 594 q 465 867 276 867 q 745 749 635 867 q 856 449 856 631 l 857 387 m 611 533 q 614 562 614 546 q 578 662 614 621 q 477 706 540 706 q 371 661 418 706 q 324 557 324 615 q 327 533 324 545 l 611 533 z "},"í":{"ha":522,"x_min":44,"x_max":459,"o":"m 459 1086 l 86 947 l 44 1044 l 403 1221 l 459 1086 m 393 -5 l 149 -5 l 149 837 l 393 837 l 393 -5 z "},"ì":{"ha":523,"x_min":71,"x_max":476,"o":"m 476 1006 l 415 918 l 71 1043 l 120 1180 l 476 1006 m 394 -1 l 150 -1 l 150 837 l 394 837 l 394 -1 z "},"î":{"ha":519,"x_min":-37,"x_max":571,"o":"m 571 935 l 396 935 l 266 1022 l 136 935 l -37 935 l 263 1178 l 571 935 m 391 -3 l 147 -3 l 147 835 l 391 835 l 391 -3 z "},"ï":{"ha":519,"x_min":48,"x_max":496,"o":"m 233 1037 q 206 968 233 998 q 142 938 180 938 q 75 966 103 938 q 48 1033 48 994 q 74 1099 48 1072 q 137 1127 100 1127 q 205 1101 176 1127 q 233 1037 233 1075 m 496 1033 q 471 965 496 995 q 410 935 446 935 q 341 960 371 935 q 312 1023 312 985 q 338 1091 312 1062 q 402 1120 364 1120 q 467 1095 439 1120 q 496 1033 496 1070 m 402 -1 l 158 -1 l 158 837 l 402 837 l 402 -1 z "},"ñ":{"ha":850,"x_min":70,"x_max":784,"o":"m 702 1080 q 661 922 702 967 q 561 884 627 884 q 473 913 530 884 q 364 972 417 943 q 280 1003 305 1003 q 247 991 258 1003 q 232 946 232 977 l 232 921 l 118 921 q 152 1053 118 1000 q 263 1115 191 1115 q 372 1083 316 1115 q 465 1022 419 1052 q 565 989 520 989 q 592 1022 583 989 q 598 1059 598 1043 l 597 1080 l 702 1080 m 784 -1 l 546 -1 l 545 525 q 522 610 545 578 q 436 648 494 648 q 338 583 373 648 q 309 448 309 528 l 310 -1 l 71 -1 l 70 823 l 298 823 l 298 679 q 389 795 331 756 q 536 834 448 834 q 699 790 641 834 q 769 676 749 751 q 784 528 784 619 l 784 -1 z "},"ó":{"ha":917,"x_min":72,"x_max":844,"o":"m 657 1030 l 285 891 l 243 988 l 602 1165 l 657 1030 m 844 421 q 737 106 844 228 q 459 -15 629 -15 q 164 116 268 -15 q 72 416 72 233 q 164 711 72 596 q 456 840 267 840 q 750 714 646 840 q 844 421 844 600 m 592 394 q 586 524 592 480 q 550 637 577 598 q 458 685 518 685 q 344 611 376 685 q 321 447 321 557 q 327 312 321 362 q 364 194 337 234 q 456 145 395 145 q 549 185 516 145 q 585 280 575 217 q 592 394 592 326 z "},"ò":{"ha":919,"x_min":77,"x_max":848,"o":"m 681 1000 l 641 904 l 276 1038 l 324 1173 l 681 1000 m 848 425 q 741 111 848 232 q 464 -11 633 -11 q 169 120 272 -11 q 77 420 77 237 q 169 715 77 600 q 461 843 272 843 q 754 718 650 843 q 848 425 848 604 m 597 398 q 591 528 597 478 q 555 641 581 603 q 463 689 523 689 q 349 615 381 689 q 325 451 325 560 q 332 316 325 366 q 368 200 342 239 q 460 149 401 149 q 577 232 546 149 q 597 398 597 287 z "},"ô":{"ha":909,"x_min":72,"x_max":844,"o":"m 751 911 l 576 911 l 446 999 l 316 912 l 143 912 l 443 1155 l 751 911 m 844 420 q 737 106 844 227 q 459 -16 629 -16 q 164 115 268 -16 q 72 415 72 231 q 164 710 72 595 q 456 838 267 838 q 750 713 646 838 q 844 420 844 599 m 592 393 q 586 522 592 478 q 550 636 577 597 q 458 684 518 684 q 344 610 376 684 q 321 446 321 556 q 327 311 321 361 q 364 194 337 234 q 456 144 396 144 q 573 227 542 144 q 592 393 592 279 z "},"ö":{"ha":912,"x_min":77,"x_max":848,"o":"m 414 1033 q 387 964 414 994 q 322 934 361 934 q 256 962 284 934 q 229 1029 229 991 q 255 1095 229 1067 q 319 1123 282 1123 q 385 1097 357 1123 q 414 1033 414 1071 m 676 1029 q 652 961 676 991 q 591 932 628 932 q 523 957 552 932 q 493 1019 493 982 q 519 1087 493 1058 q 583 1117 545 1117 q 648 1091 620 1117 q 676 1029 676 1066 m 848 426 q 741 112 848 234 q 464 -10 633 -10 q 169 121 273 -10 q 77 421 77 238 q 169 715 77 600 q 461 845 273 845 q 754 719 650 845 q 848 426 848 605 m 597 398 q 591 529 597 480 q 555 642 581 604 q 463 690 523 690 q 349 616 381 690 q 325 452 325 561 q 332 317 325 367 q 368 200 342 239 q 460 150 400 150 q 577 233 546 150 q 597 398 597 287 z "},"õ":{"ha":914,"x_min":87,"x_max":859,"o":"m 742 1080 q 717 947 742 993 q 596 884 682 884 q 509 913 565 884 q 401 972 453 943 q 316 1003 341 1003 q 281 990 294 1003 q 268 946 268 977 l 268 921 l 154 921 q 190 1054 161 1006 q 300 1116 228 1116 q 409 1083 352 1116 q 501 1022 455 1053 q 602 989 557 989 q 628 1022 620 989 q 634 1059 634 1043 l 633 1080 l 742 1080 m 859 419 q 752 104 859 226 q 475 -17 644 -17 q 179 114 283 -17 q 87 414 87 231 q 179 708 87 594 q 472 837 283 837 q 765 712 661 837 q 859 419 859 598 m 607 391 q 602 522 607 477 q 565 635 592 595 q 473 683 533 683 q 359 609 391 683 q 335 445 335 554 q 342 310 335 359 q 379 192 352 233 q 471 143 411 143 q 564 183 531 143 q 600 278 590 215 q 607 391 607 323 z "},"ú":{"ha":849,"x_min":70,"x_max":784,"o":"m 623 1038 l 250 900 l 208 997 l 568 1174 l 623 1038 m 784 -2 l 558 -2 l 558 139 q 308 -15 493 -15 q 140 50 210 -15 q 70 210 70 115 l 70 837 l 314 837 l 313 291 q 331 211 313 237 q 405 180 352 180 q 511 231 473 180 q 541 329 541 274 l 541 835 l 784 835 l 784 -2 z "},"ù":{"ha":856,"x_min":75,"x_max":790,"o":"m 664 992 l 625 895 l 260 1029 l 308 1165 l 664 992 m 790 -1 l 562 -1 l 562 141 q 312 -14 497 -14 q 145 51 214 -14 q 75 211 75 116 l 75 837 l 319 837 l 319 292 q 336 212 319 237 q 410 181 357 181 q 516 233 478 181 q 546 330 546 275 l 546 837 l 790 837 l 790 -1 z "},"û":{"ha":855,"x_min":70,"x_max":784,"o":"m 728 938 l 552 938 l 422 1025 l 292 938 l 120 938 l 420 1181 l 728 938 m 784 -1 l 558 -1 l 558 141 q 308 -14 493 -14 q 140 52 210 -14 q 70 211 70 117 l 70 837 l 314 837 l 313 292 q 331 212 313 237 q 405 181 352 181 q 511 233 473 181 q 541 330 541 275 l 541 837 l 784 837 l 784 -1 z "},"ü":{"ha":853,"x_min":70,"x_max":784,"o":"m 393 1042 q 366 972 393 1002 q 301 942 340 942 q 235 970 263 942 q 208 1038 208 998 q 234 1103 208 1075 q 298 1131 261 1131 q 364 1105 336 1131 q 393 1042 393 1079 m 655 1038 q 631 970 655 999 q 570 940 607 940 q 502 965 531 940 q 472 1028 472 991 q 498 1096 472 1067 q 562 1125 524 1125 q 627 1100 599 1125 q 655 1038 655 1075 m 784 -1 l 558 -1 l 558 141 q 308 -14 493 -14 q 140 52 210 -14 q 70 211 70 117 l 70 837 l 314 837 l 313 292 q 331 212 313 237 q 405 181 352 181 q 511 233 473 181 q 541 330 541 275 l 541 837 l 784 837 l 784 -1 z "},"†":{"ha":927,"x_min":93,"x_max":878,"o":"m 878 636 l 538 692 l 550 665 q 557 652 556 654 q 568 639 561 646 l 602 609 q 591 549 594 567 q 581 488 583 509 q 548 231 557 339 q 538 -23 538 123 l 529 -268 l 430 -268 l 420 -25 q 414 144 420 73 q 396 308 409 215 q 371 491 383 402 l 354 615 l 385 639 q 400 652 393 644 q 414 669 406 660 l 431 692 l 93 637 l 111 745 l 95 849 l 431 791 l 372 1123 l 484 1102 l 604 1120 l 538 790 l 877 848 l 856 742 l 878 636 z "},"°":{"ha":479,"x_min":75,"x_max":414,"o":"m 414 946 q 369 827 414 877 q 258 777 324 777 q 130 827 184 777 q 75 946 75 876 q 125 1065 75 1015 q 243 1115 174 1115 q 364 1066 313 1115 q 414 946 414 1016 m 369 953 q 332 1037 369 1003 q 243 1072 295 1072 q 156 1034 192 1072 q 120 943 120 996 q 159 858 120 893 q 250 823 198 823 q 335 862 300 823 q 369 953 369 901 z "},"¢":{"ha":890,"x_min":73,"x_max":815,"o":"m 815 669 l 599 659 q 565 760 599 721 q 462 805 527 805 q 344 729 379 805 q 318 567 318 673 q 348 410 318 469 q 462 337 386 337 q 477 338 472 337 q 571 382 541 338 q 596 479 596 418 l 811 462 q 788 356 811 403 q 723 265 768 313 q 646 208 697 237 q 525 165 583 171 l 525 -46 l 390 -46 l 390 164 l 343 178 q 172 282 237 208 q 93 428 118 343 q 73 572 73 496 q 120 789 73 700 q 225 907 158 862 q 339 956 274 940 l 388 969 l 388 1141 l 525 1141 l 525 969 q 631 940 575 965 q 701 896 676 919 q 778 801 750 851 q 815 669 815 737 z "},"£":{"ha":1070,"x_min":81,"x_max":1011,"o":"m 1011 295 q 936 135 993 207 q 814 31 878 64 q 663 -1 750 -1 l 81 -1 l 81 210 l 181 210 q 286 267 244 210 q 323 374 323 317 q 324 398 323 387 q 325 419 324 409 q 324 451 325 437 q 316 490 322 464 l 313 502 l 159 502 l 159 677 l 284 677 q 276 727 278 705 q 274 784 274 748 q 357 1038 274 954 q 624 1127 443 1127 q 821 1073 739 1127 q 948 915 903 1019 l 739 832 q 709 901 739 866 q 633 940 675 940 q 624 939 627 939 q 549 901 574 934 q 527 825 527 872 q 528 808 527 814 l 540 678 l 723 678 l 723 502 l 558 502 l 558 444 q 517 303 558 376 q 483 253 501 274 q 438 210 465 231 l 617 212 q 695 231 662 212 q 755 290 728 250 q 785 360 779 323 l 1011 295 z "},"§":{"ha":919,"x_min":70,"x_max":856,"o":"m 856 42 q 735 -194 856 -107 q 469 -273 626 -273 q 242 -221 335 -273 q 70 -23 130 -160 l 274 12 l 300 -25 q 380 -87 327 -65 q 489 -109 432 -109 q 597 -84 554 -109 q 644 -12 644 -57 q 504 123 644 65 q 244 232 256 225 q 104 454 104 315 q 142 599 104 522 q 209 700 170 654 q 150 783 168 741 q 132 881 132 825 q 237 1080 132 1002 q 469 1154 335 1154 q 687 1104 597 1154 q 837 943 783 1052 l 663 899 l 645 931 q 581 983 627 964 q 485 1001 536 1001 q 389 981 430 1001 q 348 925 348 961 q 348 913 348 916 q 411 833 348 866 q 535 786 426 825 q 778 654 713 721 q 837 488 837 593 q 814 364 837 419 q 737 263 790 310 q 825 171 799 216 q 856 42 856 118 m 633 438 q 609 495 633 465 q 546 542 583 528 l 370 614 q 325 582 343 604 q 307 541 307 560 q 306 525 307 535 q 305 514 305 516 q 318 471 305 488 q 383 425 336 445 l 575 343 q 633 438 633 373 z "},"•":{"ha":694,"x_min":67,"x_max":626,"o":"m 626 425 q 546 225 626 309 q 351 142 466 142 q 151 224 234 142 q 67 422 67 306 q 148 620 67 538 q 343 702 229 702 q 543 621 459 702 q 626 425 626 540 z "},"¶":{"ha":971,"x_min":80,"x_max":909,"o":"m 909 1004 l 774 1004 l 774 -282 l 662 -282 l 662 1008 l 522 1008 l 522 -282 l 408 -282 l 408 420 q 173 509 261 420 q 80 778 80 604 q 171 1008 80 906 q 414 1120 269 1120 l 909 1120 l 909 1004 z "},"ß":{"ha":1134,"x_min":66,"x_max":1064,"o":"m 1064 273 q 946 41 1064 121 q 689 -29 845 -29 q 577 -19 641 -29 q 480 7 512 -8 l 545 162 l 620 143 q 695 133 657 133 q 782 151 747 133 q 832 214 821 172 q 834 233 834 224 q 771 318 834 277 q 641 380 737 340 q 537 430 557 414 q 474 499 493 464 q 455 591 455 535 q 487 684 455 632 q 551 755 518 737 q 654 788 621 771 q 705 859 705 815 q 705 867 705 864 q 662 938 701 910 q 572 966 623 966 q 462 921 506 966 q 409 768 409 867 l 409 -104 l 154 -104 l 154 539 l 66 539 l 66 716 l 154 716 q 165 838 154 787 q 208 943 176 889 q 384 1092 263 1041 q 619 1136 490 1136 q 710 1130 667 1136 q 874 1048 799 1117 q 954 887 954 974 q 934 804 954 842 q 882 739 915 766 q 783 683 832 698 q 671 655 718 668 q 652 648 661 651 q 642 639 642 644 q 660 626 642 633 q 731 603 685 615 q 950 493 857 571 q 1064 273 1064 397 z "},"®":{"ha":1223,"x_min":70,"x_max":1154,"o":"m 612 0 q 311 80 438 0 q 130 280 194 153 q 70 542 70 401 q 205 914 70 763 q 612 1084 356 1084 q 913 1004 785 1084 q 1094 803 1030 931 q 1154 542 1154 683 q 1019 169 1154 321 q 612 0 869 0 m 612 58 q 975 209 840 58 q 1096 542 1096 345 q 975 874 1096 739 q 612 1026 841 1026 q 249 875 383 1026 q 128 542 128 739 q 249 209 128 345 q 612 58 383 58 m 871 209 l 803 209 q 798 210 800 209 q 782 316 783 240 q 777 412 781 391 q 727 488 767 467 q 693 500 710 497 q 656 504 676 504 q 629 504 639 504 l 456 504 l 456 209 l 393 209 l 393 860 l 631 860 q 792 829 736 860 q 869 690 869 788 q 842 591 869 630 q 762 528 815 551 q 797 508 794 511 q 825 475 813 496 q 840 431 836 453 q 844 384 844 409 q 843 353 844 374 q 842 322 842 333 q 845 278 842 298 q 856 234 848 258 q 861 224 858 228 q 871 209 866 216 m 807 683 q 755 782 807 751 q 641 805 713 805 l 456 805 l 456 559 l 639 559 q 753 582 712 559 q 807 683 807 612 z "},"©":{"ha":1220,"x_min":65,"x_max":1149,"o":"m 607 0 q 306 80 434 0 q 125 280 189 153 q 65 542 65 400 q 125 803 65 682 q 305 1004 189 931 q 607 1084 435 1084 q 908 1004 780 1084 q 1088 803 1025 931 q 1149 542 1149 683 q 1089 281 1149 401 q 909 81 1026 153 q 607 0 781 0 m 607 58 q 969 209 835 58 q 1091 542 1091 345 q 970 874 1091 739 q 607 1026 836 1026 q 245 875 379 1026 q 123 542 123 739 q 244 209 123 345 q 607 58 378 58 m 874 432 q 779 264 856 327 q 591 202 702 202 q 382 307 451 202 q 324 538 324 395 q 395 776 324 680 q 611 883 474 883 q 774 837 706 883 q 863 700 848 787 l 867 674 l 803 674 l 798 695 q 728 792 784 757 q 610 825 676 825 q 437 735 496 825 q 387 539 387 659 q 425 354 387 418 q 595 255 474 269 q 604 255 599 255 q 613 255 608 255 q 738 306 681 255 q 809 432 795 358 l 874 432 z "},"™":{"ha":1069,"x_min":65,"x_max":1001,"o":"m 456 1073 l 286 1073 l 286 575 l 233 575 l 233 1073 l 65 1073 l 65 1117 l 456 1117 l 456 1073 m 1001 575 l 948 575 l 948 1055 l 769 576 l 721 576 l 549 1057 l 549 575 l 496 575 l 495 1115 l 578 1115 l 748 641 l 923 1114 l 1001 1114 l 1001 575 z "},"´":{"ha":547,"x_min":75,"x_max":490,"o":"m 490 1013 l 118 875 l 75 972 l 435 1149 l 490 1013 z "},"¨":{"ha":585,"x_min":71,"x_max":519,"o":"m 256 1041 q 230 972 256 1002 q 165 942 203 942 q 99 970 126 942 q 71 1037 71 998 q 97 1103 71 1075 q 160 1131 123 1131 q 227 1105 199 1131 q 256 1041 256 1079 m 519 1037 q 495 969 519 998 q 433 940 470 940 q 365 965 394 940 q 335 1027 335 990 q 361 1096 335 1067 q 425 1125 387 1125 q 491 1099 462 1125 q 519 1037 519 1074 z "},"≠":{"ha":1083,"x_min":63,"x_max":1009,"o":"m 1009 335 l 1007 234 l 468 234 l 305 -52 l 218 -1 l 348 233 l 63 233 l 63 332 l 401 332 l 544 585 l 65 585 l 65 684 l 599 684 l 758 980 l 844 930 l 710 686 l 1006 686 l 1006 587 l 657 587 l 521 335 l 1009 335 z "},"Æ":{"ha":1623,"x_min":38,"x_max":1557,"o":"m 1557 0 l 766 0 l 766 228 l 409 228 l 268 -1 l 38 -1 l 739 1115 l 1557 1115 l 1557 895 l 1024 895 l 1024 670 l 1440 670 l 1440 455 l 1020 455 l 1020 223 l 1557 223 l 1557 0 m 768 435 l 768 816 l 537 435 l 768 435 z "},"Ø":{"ha":1108,"x_min":75,"x_max":1028,"o":"m 1028 558 q 980 282 1028 406 q 827 67 927 144 q 559 -17 717 -17 q 439 -3 496 -17 q 332 41 382 12 l 295 -17 l 123 -17 l 218 133 q 111 327 147 213 q 75 565 75 440 q 208 956 75 795 q 572 1128 348 1128 q 697 1107 636 1128 q 802 1057 750 1090 l 848 1128 l 1017 1128 l 909 957 q 998 776 968 880 q 1028 558 1028 672 m 679 862 q 627 899 657 886 q 558 913 597 913 q 426 851 477 913 q 365 710 385 800 q 350 551 350 638 q 354 462 350 507 q 370 374 359 417 l 679 862 m 755 567 q 745 695 755 630 l 451 231 q 500 202 473 212 q 560 192 528 192 q 686 253 640 192 q 742 397 725 302 q 755 567 755 470 z "},"∞":{"ha":1239,"x_min":80,"x_max":1186,"o":"m 1186 392 q 1116 216 1186 285 q 959 150 1050 150 q 833 177 898 150 q 705 259 761 207 l 633 327 l 562 259 q 434 178 506 208 q 308 150 367 150 q 151 215 217 150 q 80 392 80 284 q 149 549 80 485 q 313 614 218 614 q 430 587 371 614 q 544 509 488 559 l 633 429 l 723 509 q 838 587 780 560 q 954 614 895 614 q 1118 550 1049 614 q 1186 392 1186 485 m 1107 386 q 1057 489 1101 449 q 948 529 1014 529 q 864 511 902 529 q 790 462 841 500 l 683 382 l 783 289 q 857 241 819 255 q 947 226 896 226 q 1062 273 1018 226 q 1107 386 1107 319 m 584 382 l 477 462 q 403 510 430 497 q 319 529 364 529 q 210 489 254 529 q 160 386 166 449 q 204 272 160 319 q 320 226 248 226 q 409 240 372 226 q 484 289 446 254 l 584 382 z "},"±":{"ha":748,"x_min":62,"x_max":673,"o":"m 673 445 l 406 445 l 406 179 l 337 179 l 337 445 l 73 445 l 74 520 l 337 520 l 337 786 l 409 786 l 409 520 l 673 520 l 673 445 m 667 -2 l 62 -2 l 62 55 l 667 55 l 667 -2 z "},"≤":{"ha":927,"x_min":67,"x_max":853,"o":"m 853 190 l 67 559 l 67 670 l 853 1038 l 853 934 l 163 612 l 853 293 l 853 190 m 852 3 l 67 3 l 67 91 l 852 91 l 852 3 z "},"≥":{"ha":923,"x_min":59,"x_max":844,"o":"m 844 555 l 59 187 l 59 290 l 748 610 l 59 930 l 59 1035 l 844 667 l 844 555 m 844 -1 l 60 -1 l 60 87 l 844 87 l 844 -1 z "},"¥":{"ha":1033,"x_min":75,"x_max":974,"o":"m 974 1099 l 766 713 l 947 713 l 947 561 l 683 561 l 628 458 l 938 458 l 938 305 l 627 303 l 628 -4 l 411 -4 l 411 303 l 96 305 l 96 458 l 411 458 l 411 461 l 360 561 l 104 561 l 104 713 l 281 713 l 75 1105 l 357 1105 l 556 684 l 766 1099 l 974 1099 z "},"µ":{"ha":1004,"x_min":72,"x_max":932,"o":"m 932 157 l 923 109 q 851 8 911 50 q 746 -30 797 -30 q 732 -30 737 -30 q 638 22 679 -22 q 594 127 594 69 l 553 87 q 449 7 504 38 q 352 -25 393 -25 q 263 -3 312 -25 q 171 68 204 24 l 171 12 q 199 -112 171 -38 q 227 -246 227 -186 q 207 -316 227 -287 q 148 -349 184 -349 q 94 -321 115 -349 q 72 -256 72 -292 q 84 -167 72 -208 q 119 -46 118 -54 q 121 -23 120 -37 q 123 -1 123 -9 l 123 789 l 256 789 l 256 245 q 296 128 256 179 q 399 77 337 77 q 527 126 463 77 q 596 244 596 180 l 596 789 l 727 789 l 727 175 q 748 89 727 126 q 810 45 772 45 q 823 46 814 45 q 867 69 850 52 q 892 115 884 87 l 904 157 l 932 157 z "},"∂":{"ha":823,"x_min":76,"x_max":747,"o":"m 747 587 q 705 307 747 445 q 581 70 660 159 q 383 -29 493 -29 q 372 -29 377 -29 q 358 -28 363 -28 q 149 67 224 -15 q 76 269 76 147 q 163 501 76 402 q 377 600 250 600 q 477 582 432 600 q 568 530 516 567 l 613 497 l 626 573 q 631 618 628 593 q 633 665 633 643 q 570 925 633 819 q 372 1046 498 1046 q 299 1034 336 1046 q 225 1009 261 1021 l 197 1001 l 141 1071 l 205 1090 q 278 1107 248 1102 q 347 1112 307 1112 q 643 945 529 1112 q 747 587 747 793 m 602 442 l 561 480 q 515 516 536 504 q 462 535 493 528 q 427 538 442 538 q 294 475 353 538 q 217 329 242 417 q 204 230 204 281 q 234 98 204 152 q 335 17 268 37 q 375 10 356 10 q 475 62 430 10 q 542 183 514 106 q 580 325 565 245 l 602 442 z "},"Σ":{"ha":1170,"x_min":72,"x_max":1106,"o":"m 1106 221 q 1079 132 1088 166 q 1062 47 1070 98 q 1049 -37 1053 -4 q 1045 -114 1045 -70 l 938 -94 l 72 -94 l 608 497 l 81 1155 l 179 1145 l 998 1145 l 1001 903 l 969 903 q 956 977 969 946 q 914 1035 944 1008 q 845 1071 883 1062 q 765 1077 819 1077 l 322 1077 l 748 564 l 292 52 l 900 52 q 952 60 930 52 q 1001 89 973 68 q 1054 147 1036 115 q 1073 221 1073 179 l 1106 221 z "},"∏":{"ha":1326,"x_min":67,"x_max":1259,"o":"m 1259 -94 l 787 -94 l 787 -66 l 827 -65 q 876 -60 858 -65 q 912 -38 895 -56 q 931 -8 926 -25 q 935 31 935 9 q 935 47 935 38 q 935 64 935 55 l 935 1060 l 382 1060 l 382 73 q 387 9 382 28 q 422 -42 395 -22 q 459 -60 440 -56 q 509 -63 478 -63 l 539 -63 l 539 -94 l 67 -94 l 67 -61 l 104 -61 q 153 -58 137 -61 q 188 -41 169 -55 q 218 10 211 -22 q 221 75 221 28 l 221 973 q 173 1080 221 1038 q 139 1104 154 1097 q 101 1114 121 1114 l 75 1116 l 75 1147 l 1259 1147 l 1259 1114 l 1226 1112 q 1190 1105 1205 1112 q 1155 1083 1174 1098 q 1116 1028 1126 1059 q 1107 951 1107 997 l 1107 62 q 1112 1 1107 23 q 1139 -41 1117 -21 q 1176 -62 1157 -57 q 1224 -68 1195 -68 l 1259 -70 l 1259 -94 z "},"π":{"ha":960,"x_min":54,"x_max":891,"o":"m 891 255 l 887 220 q 821 65 875 126 q 678 -1 763 -1 q 567 76 604 -1 q 538 242 538 139 q 539 275 538 263 q 542 312 540 287 l 580 659 l 390 659 l 326 147 q 292 42 319 86 q 218 -10 261 -10 q 206 -10 212 -10 q 197 -7 200 -8 q 155 12 168 1 q 130 50 136 26 q 127 74 127 62 q 152 133 127 104 q 226 223 223 215 q 244 263 239 251 q 254 304 252 282 l 292 652 l 239 652 q 219 652 226 652 q 189 651 198 652 q 164 644 181 650 q 109 601 136 633 q 82 558 88 575 l 54 569 l 65 591 q 127 715 112 696 q 191 766 151 746 q 242 786 220 781 q 296 791 263 791 l 880 791 l 880 659 l 668 659 l 647 272 q 675 177 647 219 q 752 136 704 136 q 816 162 790 136 q 853 228 843 188 l 859 255 l 891 255 z "},"∫":{"ha":520,"x_min":84,"x_max":465,"o":"m 464 1165 q 443 1126 462 1141 q 400 1110 425 1110 q 364 1126 384 1110 q 343 1141 349 1138 q 331 1144 337 1144 q 313 1124 319 1144 q 308 1070 308 1104 q 313 963 308 1028 q 328 770 328 800 l 328 303 q 320 120 328 201 q 278 -73 308 -4 q 173 -163 239 -163 q 141 -158 158 -163 q 102 -133 119 -152 q 84 -91 84 -114 q 101 -50 84 -67 q 141 -33 117 -33 q 168 -44 157 -33 q 204 -75 199 -73 q 211 -76 209 -76 q 239 -41 231 -76 q 247 55 247 -5 q 244 143 247 79 q 242 234 242 206 l 242 884 q 250 1040 242 976 q 290 1177 263 1128 q 380 1235 324 1235 q 438 1217 411 1235 q 465 1173 465 1199 q 464 1165 464 1168 z "},"ª":{"ha":670,"x_min":83,"x_max":602,"o":"m 575 602 l 428 602 l 422 640 l 419 673 q 353 613 400 639 q 261 590 311 590 q 149 625 192 590 q 99 737 99 664 q 181 870 99 825 q 350 914 242 904 l 414 920 l 414 974 q 392 1008 414 994 q 344 1022 370 1022 q 282 1003 305 1022 q 255 950 259 984 l 115 961 l 116 971 q 205 1087 128 1046 q 358 1121 271 1121 q 520 1077 466 1121 q 562 1001 558 1046 l 566 958 l 566 658 q 570 620 566 641 l 575 602 m 602 398 l 83 398 l 83 522 l 602 522 l 602 398 m 414 786 l 414 843 l 369 839 q 295 812 328 835 q 257 751 257 786 q 261 729 257 739 q 274 705 265 718 q 316 686 288 686 q 381 713 351 686 q 414 786 414 743 z "},"º":{"ha":652,"x_min":74,"x_max":573,"o":"m 570 855 q 501 653 570 731 q 324 575 432 575 q 133 659 200 575 q 74 851 74 733 q 134 1036 74 965 q 322 1116 200 1116 q 510 1040 445 1116 q 570 855 570 969 m 573 388 l 81 388 l 81 519 l 573 519 l 573 388 m 409 837 q 396 961 409 921 q 321 1025 377 1025 q 249 977 269 1025 q 234 872 234 942 q 246 744 234 786 q 320 678 266 678 q 395 731 375 678 q 409 837 409 766 z "},"Ω":{"ha":1202,"x_min":80,"x_max":1141,"o":"m 1141 -3 l 697 -3 l 719 217 q 879 359 826 265 q 929 573 929 448 q 906 737 929 673 q 813 856 879 815 q 614 903 739 903 q 363 805 445 903 q 292 573 292 721 q 343 359 292 448 q 502 217 395 266 l 523 -3 l 80 -3 l 80 229 l 109 229 q 111 200 109 211 q 123 176 114 189 q 156 148 136 157 q 202 139 176 139 l 445 139 l 445 184 q 210 317 300 208 q 120 575 120 426 q 261 850 120 749 q 612 948 395 948 q 969 849 838 948 q 1101 575 1101 751 q 1011 317 1101 426 q 776 184 922 208 l 776 139 l 1020 139 q 1066 147 1047 139 q 1098 176 1084 155 q 1110 201 1107 189 q 1112 229 1112 212 l 1141 229 l 1141 -3 z "},"æ":{"ha":1424,"x_min":84,"x_max":1309,"o":"m 1309 370 l 781 370 l 781 299 q 829 195 781 239 q 940 150 877 150 q 1042 192 997 150 q 1080 255 1080 226 l 1080 282 l 1307 268 l 1300 249 q 1170 57 1260 126 q 920 -21 1070 -21 q 781 1 837 -21 q 694 56 734 19 q 629 127 683 66 q 504 23 596 71 q 346 -17 426 -17 q 164 39 235 -17 q 84 221 84 103 q 147 385 84 320 q 300 472 200 440 q 490 507 379 496 l 593 517 l 593 604 q 557 660 593 637 q 480 682 522 682 q 380 651 417 682 q 337 565 343 620 l 109 585 l 111 599 q 257 788 131 723 q 504 842 362 842 q 631 821 587 842 q 700 773 642 816 q 795 830 749 813 q 917 850 848 850 q 1198 732 1088 850 q 1308 432 1308 614 l 1309 370 m 1063 515 q 1066 546 1066 529 q 1030 645 1066 604 q 930 689 992 689 q 824 644 871 689 q 776 540 776 599 q 779 515 776 528 l 1063 515 m 596 393 l 521 386 q 401 343 455 381 q 339 245 339 301 q 367 168 339 208 q 397 144 379 152 q 438 136 416 136 q 542 180 495 136 q 594 300 594 229 l 596 393 z "},"ø":{"ha":913,"x_min":84,"x_max":879,"o":"m 879 862 l 784 734 q 854 599 829 674 q 879 441 879 525 q 768 118 879 243 q 483 -8 657 -8 q 368 6 422 -8 q 271 45 314 20 l 239 1 l 85 1 l 179 126 q 107 266 131 186 q 84 436 84 345 q 179 739 84 621 q 480 872 286 872 q 597 857 544 872 q 694 816 650 842 l 729 862 l 879 862 m 579 662 q 539 700 562 686 q 482 713 515 713 q 364 637 397 713 q 340 468 340 582 q 340 438 340 453 q 340 407 340 422 q 340 381 340 391 q 343 345 340 370 l 579 662 m 620 413 l 620 514 l 387 200 q 480 157 419 157 q 599 242 567 157 q 620 413 620 298 z "},"¿":{"ha":909,"x_min":74,"x_max":845,"o":"m 590 597 l 337 597 l 337 850 l 589 850 l 590 597 m 845 93 q 731 -168 845 -63 q 448 -274 618 -274 q 189 -204 287 -274 q 74 46 74 -121 q 148 250 74 160 q 287 372 179 286 q 361 469 361 430 l 361 537 l 571 537 l 571 490 q 551 335 571 382 q 504 266 546 324 q 439 212 489 247 q 368 152 388 176 q 333 65 333 112 q 355 -24 333 11 q 425 -74 377 -58 q 467 -81 446 -81 q 579 -15 531 -81 q 620 75 616 37 l 624 120 l 845 93 z "},"¡":{"ha":436,"x_min":77,"x_max":381,"o":"m 352 588 l 106 588 l 106 840 l 352 840 l 352 588 m 381 -272 l 77 -272 l 154 507 l 302 507 l 381 -272 z "},"¬":{"ha":1215,"x_min":60,"x_max":1144,"o":"m 1144 0 l 1055 0 l 1055 379 l 60 379 l 60 462 l 1144 462 l 1144 0 z "},"√":{"ha":840,"x_min":75,"x_max":776,"o":"m 776 1210 l 567 -71 l 226 605 l 96 539 l 75 584 l 275 678 l 549 139 l 729 1217 l 776 1210 z "},"ƒ":{"ha":825,"x_min":91,"x_max":760,"o":"m 758 1157 q 680 1102 738 1102 q 655 1112 667 1102 q 629 1133 635 1130 q 617 1136 624 1136 q 572 1020 586 1136 q 544 819 549 841 l 536 787 l 685 787 l 677 726 l 519 726 l 428 273 q 383 92 409 173 q 298 -102 345 -31 q 169 -192 239 -192 q 134 -187 150 -192 q 104 -166 118 -182 q 91 -131 91 -149 q 94 -118 91 -124 q 120 -77 102 -92 q 163 -62 138 -62 q 194 -82 183 -62 q 214 -104 206 -102 q 224 -106 221 -106 q 270 -52 250 -106 q 302 71 286 -10 q 327 205 314 138 l 431 727 l 267 727 l 271 789 l 454 789 l 462 829 q 510 1009 484 933 q 584 1162 544 1109 q 689 1226 633 1226 q 738 1209 715 1226 q 760 1170 760 1192 q 758 1157 760 1163 z "},"≈":{"ha":1025,"x_min":72,"x_max":966,"o":"m 966 581 l 933 544 q 842 470 890 493 q 730 447 794 447 q 648 460 690 447 q 565 486 605 473 l 430 524 q 374 540 402 532 q 322 547 347 547 q 288 544 308 547 q 223 521 249 536 q 169 475 198 506 l 142 446 l 72 491 l 94 515 q 180 585 137 562 q 284 618 223 609 q 333 623 311 623 q 396 615 362 623 q 464 597 417 611 l 582 561 q 654 539 618 549 q 727 528 691 528 q 806 544 777 533 q 872 591 841 558 l 901 621 l 966 581 m 966 319 l 933 282 q 842 209 890 231 q 730 186 795 186 q 648 198 691 186 q 565 224 605 211 l 430 262 q 374 278 402 270 q 322 285 347 285 q 288 282 308 285 q 224 259 250 274 q 169 213 198 244 l 142 184 l 72 229 l 94 254 q 180 324 137 300 q 284 356 223 347 q 333 361 311 361 q 396 353 362 361 q 464 335 417 349 l 582 300 q 647 277 627 284 q 710 266 680 266 q 721 266 717 266 q 727 267 725 267 q 806 281 773 267 q 872 329 840 295 l 901 359 l 966 319 z "},"∆":{"ha":1121,"x_min":81,"x_max":1067,"o":"m 1067 -1 l 81 -1 l 607 1105 l 1067 -1 m 872 72 l 546 843 l 184 72 l 872 72 z "},"«":{"ha":850,"x_min":68,"x_max":782,"o":"m 782 586 l 557 426 l 776 270 l 776 107 l 465 350 l 465 506 l 782 739 l 782 586 m 385 586 l 160 426 l 380 270 l 380 107 l 68 350 l 68 506 l 385 739 l 385 586 z "},"»":{"ha":831,"x_min":61,"x_max":774,"o":"m 774 350 l 463 107 l 463 270 l 682 426 l 459 586 l 459 739 l 774 506 l 774 350 m 378 350 l 66 107 l 66 270 l 286 426 l 61 586 l 61 739 l 378 506 l 378 350 z "},"…":{"ha":1123,"x_min":86,"x_max":1055,"o":"m 337 7 l 86 7 l 86 259 l 337 259 l 337 7 m 1055 -1 l 804 -1 l 804 252 l 1055 252 l 1055 -1 m 703 -1 l 453 -1 l 453 252 l 703 252 l 703 -1 z "}," ":{"ha":1032,"x_min":0,"x_max":0,"o":""},"À":{"ha":1165,"x_min":94,"x_max":1103,"o":"m 814 1274 l 775 1178 l 409 1312 l 458 1448 l 814 1274 m 1103 -1 l 818 -1 l 752 231 l 395 231 l 324 -1 l 94 -1 l 455 1117 l 757 1117 l 1103 -1 m 691 438 l 577 820 l 459 438 l 691 438 z "},"Ã":{"ha":1165,"x_min":75,"x_max":1084,"o":"m 891 1373 q 866 1239 891 1285 q 745 1177 831 1177 q 658 1206 714 1177 q 549 1265 602 1236 q 465 1296 491 1296 q 432 1284 443 1296 q 417 1239 417 1270 l 417 1213 l 303 1213 q 339 1346 310 1298 q 448 1408 377 1408 q 557 1376 501 1408 q 650 1316 604 1345 q 750 1282 705 1282 q 774 1304 764 1282 q 783 1353 783 1326 l 782 1373 l 891 1373 m 1084 -7 l 799 -7 l 734 222 l 376 222 l 305 -4 l 75 -4 l 436 1116 l 738 1116 l 1084 -7 m 672 430 l 558 811 l 440 430 l 672 430 z "},"Õ":{"ha":1086,"x_min":67,"x_max":1020,"o":"m 832 1385 q 804 1255 824 1293 q 686 1194 771 1194 q 599 1224 655 1194 q 491 1281 543 1253 q 406 1313 431 1313 q 371 1300 384 1313 q 358 1256 358 1287 l 358 1231 l 244 1231 q 280 1363 251 1316 q 390 1426 318 1426 q 499 1393 442 1426 q 591 1332 545 1363 q 692 1299 647 1299 q 718 1332 710 1299 q 724 1369 724 1354 l 723 1390 l 832 1385 m 1020 559 q 972 282 1020 406 q 819 68 919 145 q 551 -17 708 -17 q 186 164 319 -17 q 67 567 67 327 q 199 957 67 796 q 563 1129 340 1129 q 825 1044 717 1129 q 973 833 922 968 q 1020 559 1020 710 m 747 570 q 734 727 747 662 q 677 860 716 814 q 550 915 630 915 q 418 853 469 915 q 357 711 377 803 q 342 553 342 639 q 358 395 342 467 q 422 255 379 305 q 552 194 473 194 q 678 255 631 194 q 734 399 717 305 q 747 570 747 472 z "},"Œ":{"ha":1616,"x_min":83,"x_max":1562,"o":"m 1562 0 l 767 0 l 767 32 q 674 1 723 12 q 567 -10 625 -10 q 202 171 335 -10 q 83 573 83 332 q 215 963 83 802 q 579 1135 356 1135 q 680 1121 629 1135 q 767 1088 721 1110 l 767 1116 l 1562 1116 l 1562 893 l 1028 893 l 1028 670 l 1445 670 l 1445 456 l 1028 456 l 1024 429 l 1024 223 l 1562 223 l 1562 0 m 762 575 q 749 733 762 668 q 692 865 731 819 q 565 920 645 920 q 433 858 484 920 q 372 717 392 808 q 357 559 357 645 q 374 401 357 472 q 437 261 395 311 q 567 200 488 200 q 694 260 647 200 q 749 404 732 309 q 762 575 762 477 z "},"œ":{"ha":1448,"x_min":73,"x_max":1388,"o":"m 1388 377 l 858 377 q 859 344 858 364 q 860 306 859 324 q 908 202 860 247 q 1020 157 956 157 q 1121 199 1076 157 q 1159 262 1159 234 l 1159 290 l 1386 275 l 1379 256 q 1250 64 1339 133 q 999 -14 1149 -14 q 855 11 921 -14 q 736 85 789 36 q 615 11 682 36 q 472 -15 549 -15 q 167 120 274 -15 q 73 429 73 239 q 168 732 73 614 q 469 865 274 865 q 626 837 556 865 q 740 763 691 812 q 853 833 790 809 q 996 858 916 858 q 1277 739 1167 858 q 1387 440 1387 621 l 1388 377 m 1142 522 q 1145 554 1145 536 q 1110 652 1145 612 q 1009 696 1071 696 q 903 651 950 696 q 856 547 856 606 q 858 522 856 535 l 1142 522 m 609 406 q 577 627 609 554 q 470 705 543 705 q 353 630 385 705 q 329 461 329 575 q 335 322 329 374 q 371 201 345 242 q 462 150 403 150 q 480 149 476 149 q 588 244 556 149 q 609 406 609 306 z "},"–":{"ha":929,"x_min":72,"x_max":857,"o":"m 857 335 l 72 335 l 72 534 l 857 534 l 857 335 z "},"—":{"ha":1635,"x_min":61,"x_max":1566,"o":"m 1566 334 l 61 334 l 61 532 l 1566 532 l 1566 334 z "},"“":{"ha":676,"x_min":70,"x_max":611,"o":"m 611 663 l 378 663 l 378 872 l 516 1115 l 607 1115 l 501 894 l 611 897 l 611 663 m 303 663 l 70 663 l 70 872 l 208 1115 l 300 1115 l 189 894 l 303 897 l 303 663 z "},"”":{"ha":686,"x_min":73,"x_max":620,"o":"m 308 916 l 163 664 l 73 664 l 182 883 l 73 883 l 73 1115 l 308 1115 l 308 916 m 620 913 l 475 662 l 385 662 l 495 880 l 385 880 l 385 1112 l 620 1112 l 620 913 z "},"‘":{"ha":374,"x_min":70,"x_max":303,"o":"m 303 664 l 70 664 l 70 873 l 208 1116 l 300 1116 l 189 895 l 303 895 l 303 664 z "},"’":{"ha":374,"x_min":70,"x_max":305,"o":"m 305 916 l 161 665 l 70 665 l 181 884 l 71 884 l 71 1116 l 305 1116 l 305 916 z "},"÷":{"ha":994,"x_min":94,"x_max":947,"o":"m 605 737 q 580 670 605 698 q 517 641 554 641 q 451 670 479 641 q 424 739 424 700 q 450 801 424 776 q 513 827 476 827 q 578 800 551 827 q 605 737 605 774 m 947 468 l 94 468 l 94 562 l 947 562 l 947 468 m 603 287 q 577 225 603 251 q 513 200 550 200 q 450 228 476 200 q 424 295 424 256 q 450 356 424 330 q 512 381 476 381 q 576 353 549 381 q 603 287 603 326 z "},"◊":{"ha":807,"x_min":76,"x_max":737,"o":"m 737 544 l 455 -2 l 362 -2 l 76 552 l 362 1080 l 455 1080 l 737 544 m 652 544 l 408 1000 l 163 550 l 410 67 l 652 544 z "},"ÿ":{"ha":874,"x_min":59,"x_max":796,"o":"m 428 1020 q 402 951 428 981 q 337 921 375 921 q 271 949 298 921 q 243 1016 243 977 q 269 1082 243 1054 q 332 1110 295 1110 q 399 1084 371 1110 q 428 1020 428 1058 m 691 1016 q 667 948 691 977 q 605 919 642 919 q 537 944 566 919 q 507 1006 507 969 q 533 1075 507 1046 q 597 1104 559 1104 q 663 1078 634 1104 q 691 1016 691 1053 m 796 835 l 515 -42 q 455 -176 485 -135 q 386 -239 429 -212 q 301 -269 353 -260 q 217 -276 262 -276 q 190 -276 200 -276 q 166 -274 179 -275 l 110 -268 l 110 -83 l 142 -85 q 184 -87 161 -85 q 248 -92 239 -92 q 258 -92 254 -92 q 273 -91 263 -92 q 332 -58 308 -86 q 357 4 357 -30 q 353 30 357 17 l 59 834 l 316 834 l 470 346 l 618 835 l 796 835 z "},"Ÿ":{"ha":1006,"x_min":27,"x_max":979,"o":"m 979 1116 l 628 471 l 628 0 l 365 0 l 365 466 l 27 1116 l 326 1116 l 533 690 l 745 1116 l 979 1116 m 494 1292 q 468 1222 494 1252 q 403 1192 441 1192 q 337 1221 364 1192 q 309 1287 309 1249 q 335 1353 309 1326 q 398 1381 361 1381 q 466 1355 437 1381 q 494 1292 494 1329 m 757 1287 q 733 1219 757 1249 q 671 1190 708 1190 q 603 1215 632 1190 q 573 1277 573 1240 q 599 1346 573 1317 q 663 1375 625 1375 q 729 1350 700 1375 q 757 1287 757 1324 z "},"·":{"ha":397,"x_min":80,"x_max":330,"o":"m 330 446 l 80 446 l 80 698 l 330 698 l 330 446 z "},"‚":{"ha":374,"x_min":70,"x_max":305,"o":"m 305 35 l 161 -216 l 70 -216 l 181 2 l 71 2 l 71 234 l 305 234 l 305 35 z "},"„":{"ha":686,"x_min":73,"x_max":620,"o":"m 308 28 l 163 -224 l 73 -224 l 182 -5 l 73 -5 l 73 226 l 308 226 l 308 28 m 620 25 l 475 -226 l 385 -226 l 495 -8 l 385 -8 l 385 224 l 620 224 l 620 25 z "},"Â":{"ha":1086,"x_min":42,"x_max":1051,"o":"m 1051 0 l 766 0 l 700 223 l 343 223 l 272 0 l 42 0 l 403 1116 l 705 1116 l 1051 0 m 639 435 l 525 818 l 408 435 l 639 435 m 858 1189 l 683 1189 l 552 1277 l 422 1190 l 250 1190 l 550 1432 l 858 1189 z "},"Ê":{"ha":1006,"x_min":116,"x_max":911,"o":"m 911 0 l 116 0 l 116 1116 l 911 1116 l 911 893 l 377 893 l 377 670 l 794 670 l 794 456 l 373 456 l 373 223 l 911 223 l 911 0 m 824 1189 l 649 1189 l 519 1277 l 389 1190 l 216 1190 l 517 1432 l 824 1189 z "},"Á":{"ha":1102,"x_min":42,"x_max":1051,"o":"m 1051 0 l 766 0 l 700 223 l 343 223 l 272 0 l 42 0 l 403 1116 l 705 1116 l 1051 0 m 639 435 l 525 818 l 408 435 l 639 435 m 764 1327 l 392 1189 l 350 1286 l 710 1463 l 764 1327 z "},"Ë":{"ha":998,"x_min":116,"x_max":911,"o":"m 911 0 l 116 0 l 116 1116 l 911 1116 l 911 893 l 377 893 l 377 670 l 794 670 l 794 456 l 373 456 l 373 223 l 911 223 l 911 0 m 486 1292 q 460 1222 486 1252 q 395 1192 433 1192 q 329 1221 356 1192 q 301 1287 301 1249 q 327 1353 301 1326 q 390 1381 353 1381 q 458 1355 429 1381 q 486 1292 486 1329 m 749 1287 q 725 1219 749 1249 q 663 1190 700 1190 q 595 1215 624 1190 q 565 1277 565 1240 q 591 1346 565 1317 q 655 1375 617 1375 q 721 1350 692 1375 q 749 1287 749 1324 z "},"È":{"ha":998,"x_min":116,"x_max":911,"o":"m 911 0 l 116 0 l 116 1116 l 911 1116 l 911 893 l 377 893 l 377 670 l 794 670 l 794 456 l 373 456 l 373 223 l 911 223 l 911 0 m 726 1290 l 686 1194 l 321 1328 l 370 1464 l 726 1290 z "},"Í":{"ha":463,"x_min":34,"x_max":448,"o":"m 360 0 l 97 0 l 97 1116 l 360 1116 l 360 0 m 448 1316 l 76 1178 l 34 1274 l 394 1451 l 448 1316 z "},"Î":{"ha":455,"x_min":-87,"x_max":521,"o":"m 360 0 l 97 0 l 97 1116 l 360 1116 l 360 0 m 521 1190 l 346 1190 l 216 1279 l 86 1192 l -87 1192 l 213 1434 l 521 1190 z "},"Ï":{"ha":455,"x_min":17,"x_max":464,"o":"m 360 0 l 97 0 l 97 1116 l 360 1116 l 360 0 m 202 1293 q 175 1224 202 1254 q 110 1194 149 1194 q 44 1222 72 1194 q 17 1289 17 1250 q 43 1355 17 1327 q 106 1382 69 1382 q 173 1357 144 1382 q 202 1293 202 1331 m 464 1289 q 440 1221 464 1250 q 379 1192 416 1192 q 310 1217 340 1192 q 281 1279 281 1242 q 307 1348 281 1319 q 371 1377 332 1377 q 436 1351 408 1377 q 464 1289 464 1326 z "},"Ì":{"ha":455,"x_min":26,"x_max":430,"o":"m 360 0 l 97 0 l 97 1116 l 360 1116 l 360 0 m 430 1285 l 391 1189 l 26 1323 l 75 1459 l 430 1285 z "},"Ó":{"ha":1078,"x_min":75,"x_max":1028,"o":"m 1028 558 q 980 282 1028 406 q 827 67 927 144 q 559 -17 717 -17 q 194 163 327 -17 q 75 565 75 325 q 208 956 75 795 q 572 1128 348 1128 q 833 1043 726 1128 q 981 832 930 967 q 1028 558 1028 708 m 755 567 q 742 726 755 660 q 685 858 724 812 q 558 913 638 913 q 426 851 477 913 q 365 710 385 800 q 350 551 350 638 q 366 393 350 465 q 430 253 387 303 q 560 192 481 192 q 686 253 640 192 q 742 397 725 302 q 755 567 755 470 m 766 1329 l 394 1191 l 352 1287 l 712 1464 l 766 1329 z "},"Ô":{"ha":1078,"x_min":75,"x_max":1028,"o":"m 1028 558 q 980 282 1028 406 q 827 67 927 144 q 559 -17 717 -17 q 194 163 327 -17 q 75 565 75 325 q 208 956 75 795 q 572 1128 348 1128 q 833 1043 726 1128 q 981 832 930 967 q 1028 558 1028 708 m 755 567 q 742 726 755 660 q 685 858 724 812 q 558 913 638 913 q 426 851 477 913 q 365 710 385 800 q 350 551 350 638 q 366 393 350 465 q 430 253 387 303 q 560 192 481 192 q 686 253 640 192 q 742 397 725 302 q 755 567 755 470 m 872 1190 l 697 1190 l 567 1279 l 437 1192 l 264 1192 l 565 1434 l 872 1190 z "},"Ò":{"ha":1078,"x_min":75,"x_max":1028,"o":"m 1028 558 q 980 282 1028 406 q 827 67 927 144 q 559 -17 717 -17 q 194 163 327 -17 q 75 565 75 325 q 208 956 75 795 q 572 1128 348 1128 q 833 1043 726 1128 q 981 832 930 967 q 1028 558 1028 708 m 755 567 q 742 726 755 660 q 685 858 724 812 q 558 913 638 913 q 426 851 477 913 q 365 710 385 800 q 350 551 350 638 q 366 393 350 465 q 430 253 387 303 q 560 192 481 192 q 686 253 640 192 q 742 397 725 302 q 755 567 755 470 m 759 1287 l 720 1191 l 355 1324 l 403 1460 l 759 1287 z "},"Ú":{"ha":1014,"x_min":70,"x_max":956,"o":"m 956 425 q 931 210 956 289 q 808 50 896 104 q 520 -12 706 -12 q 164 107 273 -12 q 70 410 70 209 l 70 1116 l 353 1116 l 353 501 q 387 253 353 308 q 537 198 421 198 q 697 250 663 198 q 731 493 731 303 l 731 1116 l 956 1116 l 956 425 m 757 1329 l 385 1191 l 343 1287 l 702 1464 l 757 1329 z "},"Û":{"ha":1014,"x_min":70,"x_max":956,"o":"m 956 425 q 931 210 956 289 q 808 50 896 104 q 520 -12 706 -12 q 164 107 273 -12 q 70 410 70 209 l 70 1116 l 353 1116 l 353 501 q 387 253 353 308 q 537 198 421 198 q 697 250 663 198 q 731 493 731 303 l 731 1116 l 956 1116 l 956 425 m 826 1190 l 651 1190 l 520 1279 l 390 1192 l 218 1192 l 518 1434 l 826 1190 z "},"Ù":{"ha":1014,"x_min":70,"x_max":956,"o":"m 956 425 q 931 210 956 289 q 808 50 896 104 q 520 -12 706 -12 q 164 107 273 -12 q 70 410 70 209 l 70 1116 l 353 1116 l 353 501 q 387 253 353 308 q 537 198 421 198 q 697 250 663 198 q 731 493 731 303 l 731 1116 l 956 1116 l 956 425 m 710 1287 l 670 1191 l 305 1324 l 354 1460 l 710 1287 z "}}}
